# Made in Blockbench 4.12.5
mtllib test.mtl

o cone
v 0.5 0 0.5
v 0.5 2 0.5
v 0.8106601717798213 0 1.25
v 1.25 0 0.8106601717798214
v 1.25 0 0.1893398282201787
v 0.8106601717798214 0 -0.25
v 0.18933982822017875 0 -0.2500000000000001
v -0.2499999999999999 0 0.1893398282201782
v -0.25 0 0.8106601717798214
v 0.1893398282201782 0 1.25
vt 0.875 0.65625
vt 0.65625 0.875
vt 0.5 0.5
vt 0.53125 0
vt 0.84375 0
vt 0.6875 1
vt 0.875 0.34375
vt 0.875 0.65625
vt 0.5 0.5
vt 0.6875 0
vt 1 0
vt 0.84375 1
vt 0.5 0.09375
vt 0.875 0.3377363478430546
vt 0.5 0.5
vt 0.3125 0
vt 0.625 0
vt 0.46875 1
vt 0.34375 0.125
vt 0.65625 0.125
vt 0.5 0.5
vt 0.0625 0
vt 0.375 0
vt 0.21875 1
vt 0.125 0.34375
vt 0.33773634784305456 0.125
vt 0.5 0.5
vt 0.3125 0
vt 0.625 0
vt 0.625 1
vt 0.125 0.65625
vt 0.125 0.34375
vt 0.5 0.5
vt 0.625 0
vt 0.9375 0
vt 0.625 1
vt 0.34375 0.875
vt 0.125 0.65625
vt 0.5 0.5
vt 0 0
vt 0.3125 0
vt 0.15625 1
vt 0.65625 0.875
vt 0.34375 0.875
vt 0.5 0.5
vt 0.375 0
vt 0.6875 0
vt 0.53125 1
vn 0 -1 0
vn 0.6620847108818944 0.35112344158839176 0.6620847108818945
vn 0 -1 0
vn 0.9363291775690447 0.3511234415883917 0
vn 0 -1 0
vn 0.6620847108818945 0.35112344158839176 -0.6620847108818944
vn 0 -1 0
vn 1.6731050614081523e-16 0.35112344158839176 -0.9363291775690447
vn 0 -1 0
vn -0.6620847108818941 0.35112344158839176 -0.6620847108818946
vn 0 -1 0
vn -0.9363291775690445 0.3511234415883917 -1.67310506140815e-16
vn 0 -1 0
vn -0.6620847108818945 0.3511234415883918 0.6620847108818941
vn 0 -1 0
vn -1.673105061408151e-16 0.35112344158839176 0.9363291775690447
usemtl m_d96cd03e-ac35-ce66-ebed-25c9a4aac8cb
f 4/1/1 3/2/1 1/3/1
f 3/4/2 4/5/2 2/6/2
f 5/7/3 4/8/3 1/9/3
f 4/10/4 5/11/4 2/12/4
f 6/13/5 5/14/5 1/15/5
f 5/16/6 6/17/6 2/18/6
f 7/19/7 6/20/7 1/21/7
f 6/22/8 7/23/8 2/24/8
f 8/25/9 7/26/9 1/27/9
f 7/28/10 8/29/10 2/30/10
f 9/31/11 8/32/11 1/33/11
f 8/34/12 9/35/12 2/36/12
f 10/37/13 9/38/13 1/39/13
f 9/40/14 10/41/14 2/42/14
f 3/43/15 10/44/15 1/45/15
f 10/46/16 3/47/16 2/48/16