# Made in Blockbench 4.12.5
mtllib test.mtl

o cylinder
v 0.8106601717798213 0 1.25
v 0.8106601717798213 2 1.25
v 1.25 0 0.8106601717798214
v 1.25 2 0.8106601717798214
v 1.25 0 0.1893398282201787
v 1.25 2 0.1893398282201787
v 0.8106601717798214 0 -0.25
v 0.8106601717798214 2 -0.25
v 0.18933982822017875 0 -0.2500000000000001
v 0.18933982822017875 2 -0.2500000000000001
v -0.2499999999999999 0 0.1893398282201782
v -0.2499999999999999 2 0.1893398282201782
v -0.25 0 0.8106601717798214
v -0.25 2 0.8106601717798214
v 0.1893398282201782 0 1.25
v 0.1893398282201782 2 1.25
vt 0.625 0
vt 0.9356625000000001 0
vt 0.9356625000000001 1
vt 0.625 1
vt 0 0
vt 0.3106625 0
vt 0.3106625 1
vt 0 1
vt 0.5 0
vt 0.8106625000000001 0
vt 0.8106625000000001 1
vt 0.5 1
vt 0 0
vt 0.3106625 0
vt 0.3106625 1
vt 0 1
vt 0.3125 0
vt 0.6231625000000001 0
vt 0.6231625000000001 1
vt 0.3125 1
vt 0.625 0
vt 0.9356625000000001 0
vt 0.9356625000000001 1
vt 0.625 1
vt 0 0
vt 0.3106625 0
vt 0.3106625 1
vt 0 1
vt 0.3125 0
vt 0.6231625000000001 0
vt 0.6231625000000001 1
vt 0.3125 1
vn 0.7071067811865475 0 0.7071067811865476
vn 1 0 0
vn 0.7071067811865477 0 -0.7071067811865475
vn 1.786876988872621e-16 0 -1
vn -0.7071067811865472 0 -0.7071067811865478
vn -1 0 -1.7868769888726192e-16
vn -0.7071067811865478 0 0.7071067811865474
vn -1.7868769888726197e-16 0 1
usemtl m_e6c391ec-04b2-bdf3-148f-d02d365944f9
f 1/1/1 3/2/1 4/3/1 2/4/1
f 3/5/2 5/6/2 6/7/2 4/8/2
f 5/9/3 7/10/3 8/11/3 6/12/3
f 7/13/4 9/14/4 10/15/4 8/16/4
f 9/17/5 11/18/5 12/19/5 10/20/5
f 11/21/6 13/22/6 14/23/6 12/24/6
f 13/25/7 15/26/7 16/27/7 14/28/7
f 15/29/8 1/30/8 2/31/8 16/32/8
o cylinder2
v 0.8106601717798213 2 1.25
v 0.8106601717798213 3 1.25
v 1.25 2 0.8106601717798214
v 1.25 3 0.8106601717798214
v 1.25 2 0.1893398282201787
v 1.25 3 0.1893398282201787
v 0.8106601717798214 2 -0.25
v 0.8106601717798214 3 -0.25
v 0.18933982822017875 2 -0.2500000000000001
v 0.18933982822017875 3 -0.2500000000000001
v -0.2499999999999999 2 0.1893398282201782
v -0.2499999999999999 3 0.1893398282201782
v -0.25 2 0.8106601717798214
v -0.25 3 0.8106601717798214
v 0.1893398282201782 2 1.25
v 0.1893398282201782 3 1.25
vt 0.3125 0
vt 0.6231625000000001 0
vt 0.6231625000000001 0.5
vt 0.3125 0.5
vt 0 0
vt 0.3106625 0
vt 0.3106625 0.5
vt 0 0.5
vt 0.6893374999999999 0
vt 1 0
vt 1 0.5
vt 0.6893374999999999 0.5
vt 0.4375 0
vt 0.7481625000000001 0
vt 0.7481625000000001 0.5
vt 0.4375 0.5
vt 0.125 0
vt 0.4356625 0
vt 0.4356625 0.5
vt 0.125 0.5
vt 0 0
vt 0.3106625 0
vt 0.3106625 0.5
vt 0 0.5
vt 0.3125 0
vt 0.6231625000000001 0
vt 0.6231625000000001 0.5
vt 0.3125 0.5
vt 0.0625 0
vt 0.3731625 0
vt 0.3731625 0.5
vt 0.0625 0.5
vn 0.7071067811865475 0 0.7071067811865476
vn 1 0 0
vn 0.7071067811865477 0 -0.7071067811865475
vn 1.786876988872621e-16 0 -1
vn -0.7071067811865472 0 -0.7071067811865478
vn -1 0 -1.7868769888726192e-16
vn -0.7071067811865478 0 0.7071067811865474
vn -1.7868769888726197e-16 0 1
usemtl m_e6c391ec-04b2-bdf3-148f-d02d365944f9
f 17/33/9 19/34/9 20/35/9 18/36/9
f 19/37/10 21/38/10 22/39/10 20/40/10
f 21/41/11 23/42/11 24/43/11 22/44/11
f 23/45/12 25/46/12 26/47/12 24/48/12
f 25/49/13 27/50/13 28/51/13 26/52/13
f 27/53/14 29/54/14 30/55/14 28/56/14
f 29/57/15 31/58/15 32/59/15 30/60/15
f 31/61/16 17/62/16 18/63/16 32/64/16