# Made in Blockbench 4.12.5
mtllib industrial_heater.mtl

o bottom
v 2 0.125 2
v 2 0.125 -1
v 2 0 2
v 2 0 -1
v -1 0.125 -1
v -1 0.125 2
v -1 0 -1
v -1 0 2
vt 0 0.125
vt 1 0.125
vt 1 0
vt 0 0
vt 0 0.125
vt 1 0.125
vt 1 0
vt 0 0
vt 0 0.125
vt 1 0.125
vt 1 0
vt 0 0
vt 0 0.125
vt 1 0.125
vt 1 0
vt 0 0
vt 0 1
vt 1 1
vt 1 0
vt 0 0
vt 0 1
vt 1 1
vt 1 0
vt 0 0
vn 0 0 -1
vn 1 0 0
vn 0 0 1
vn -1 0 0
vn 0 1 0
vn 0 -1 0
usemtl m_02b08f4f-b44a-675d-1358-27281c183b56
f 4/4/1 7/3/1 5/2/1 2/1/1
usemtl m_70e916d3-64b9-af6c-db55-13612a4b1fb7
f 3/8/2 4/7/2 2/6/2 1/5/2
f 8/12/3 3/11/3 1/10/3 6/9/3
f 7/16/4 8/15/4 6/14/4 5/13/4
usemtl m_a7377a29-4927-7027-4e29-128581f7d299
f 6/20/5 1/19/5 2/18/5 5/17/5
f 7/24/6 4/23/6 3/22/6 8/21/6
o middle
v 1.875 0.875 1.875
v 1.875 0.875 -0.875
v 1.875 0.125 1.875
v 1.875 0.125 -0.875
v -0.875 0.875 -0.875
v -0.875 0.875 1.875
v -0.875 0.125 -0.875
v -0.875 0.125 1.875
vt 0.041666666666666664 0.875
vt 0.9583333333333334 0.875
vt 0.9583333333333334 0.125
vt 0.041666666666666664 0.125
vt 0.041666666666666664 0.875
vt 0.9583333333333334 0.875
vt 0.9583333333333334 0.125
vt 0.041666666666666664 0.125
vt 0.041666666666666664 0.875
vt 0.9583333333333334 0.875
vt 0.9583333333333334 0.125
vt 0.041666666666666664 0.125
vt 0.041666666666666664 0.875
vt 0.9583333333333334 0.875
vt 0.9583333333333334 0.125
vt 0.041666666666666664 0.125
vn 0 0 -1
vn 1 0 0
vn 0 0 1
vn -1 0 0
usemtl m_02b08f4f-b44a-675d-1358-27281c183b56
f 12/28/7 15/27/7 13/26/7 10/25/7
usemtl m_70e916d3-64b9-af6c-db55-13612a4b1fb7
f 11/32/8 12/31/8 10/30/8 9/29/8
f 16/36/9 11/35/9 9/34/9 14/33/9
f 15/40/10 16/39/10 14/38/10 13/37/10
o top
v 2 1 2
v 2 1 -1
v 2 0.875 2
v 2 0.875 -1
v -1 1 -1
v -1 1 2
v -1 0.875 -1
v -1 0.875 2
vt 0 1
vt 1 1
vt 1 0.875
vt 0 0.875
vt 0 1
vt 1 1
vt 1 0.875
vt 0 0.875
vt 0 1
vt 1 1
vt 1 0.875
vt 0 0.875
vt 0 1
vt 1 1
vt 1 0.875
vt 0 0.875
vt 0 1
vt 1 1
vt 1 0
vt 0 0
vt 0 1
vt 1 1
vt 1 0
vt 0 0
vn 0 0 -1
vn 1 0 0
vn 0 0 1
vn -1 0 0
vn 0 1 0
vn 0 -1 0
usemtl m_02b08f4f-b44a-675d-1358-27281c183b56
f 20/44/11 23/43/11 21/42/11 18/41/11
usemtl m_70e916d3-64b9-af6c-db55-13612a4b1fb7
f 19/48/12 20/47/12 18/46/12 17/45/12
f 24/52/13 19/51/13 17/50/13 22/49/13
f 23/56/14 24/55/14 22/54/14 21/53/14
usemtl m_a13df4e5-48c0-c861-8ca8-b87661816ce5
f 22/60/15 17/59/15 18/58/15 21/57/15
f 23/64/16 20/63/16 19/62/16 24/61/16
o pole1
v -0.875 0.875 -0.875
v -0.875 0.875 -1
v -0.875 0.125 -0.875
v -0.875 0.125 -1
v -1 0.875 -1
v -1 0.875 -0.875
v -1 0.125 -1
v -1 0.125 -0.875
vt 0.9583333333333334 0.875
vt 1 0.875
vt 1 0.125
vt 0.9583333333333334 0.125
vt 0.9583333333333334 0.875
vt 1 0.875
vt 1 0.125
vt 0.9583333333333334 0.125
vt 0 0.875
vt 0.041666666666666664 0.875
vt 0.041666666666666664 0.125
vt 0 0.125
vt 0 0.875
vt 0.041666666666666664 0.875
vt 0.041666666666666664 0.125
vt 0 0.125
vn 0 0 -1
vn 1 0 0
vn 0 0 1
vn -1 0 0
usemtl m_02b08f4f-b44a-675d-1358-27281c183b56
f 28/68/17 31/67/17 29/66/17 26/65/17
usemtl m_70e916d3-64b9-af6c-db55-13612a4b1fb7
f 27/72/18 28/71/18 26/70/18 25/69/18
f 32/76/19 27/75/19 25/74/19 30/73/19
f 31/80/20 32/79/20 30/78/20 29/77/20
o pole2
v 2 0.875 2
v 2 0.875 1.875
v 2 0.125 2
v 2 0.125 1.875
v 1.875 0.875 1.875
v 1.875 0.875 2
v 1.875 0.125 1.875
v 1.875 0.125 2
vt 0 0.875
vt 0.041666666666666664 0.875
vt 0.041666666666666664 0.125
vt 0 0.125
vt 0 0.875
vt 0.041666666666666664 0.875
vt 0.041666666666666664 0.125
vt 0 0.125
vt 0.9583333333333334 0.875
vt 1 0.875
vt 1 0.125
vt 0.9583333333333334 0.125
vt 0.9583333333333334 0.875
vt 1 0.875
vt 1 0.125
vt 0.9583333333333334 0.125
vn 0 0 -1
vn 1 0 0
vn 0 0 1
vn -1 0 0
usemtl m_70e916d3-64b9-af6c-db55-13612a4b1fb7
f 36/84/21 39/83/21 37/82/21 34/81/21
f 35/88/22 36/87/22 34/86/22 33/85/22
f 40/92/23 35/91/23 33/90/23 38/89/23
f 39/96/24 40/95/24 38/94/24 37/93/24
o pole4
v 2 0.875 -0.875
v 2 0.875 -1
v 2 0.125 -0.875
v 2 0.125 -1
v 1.875 0.875 -1
v 1.875 0.875 -0.875
v 1.875 0.125 -1
v 1.875 0.125 -0.875
vt 0 0.875
vt 0.041666666666666664 0.875
vt 0.041666666666666664 0.125
vt 0 0.125
vt 0.9583333333333334 0.875
vt 1 0.875
vt 1 0.125
vt 0.9583333333333334 0.125
vt 0.9583333333333334 0.875
vt 1 0.875
vt 1 0.125
vt 0.9583333333333334 0.125
vt 0 0.875
vt 0.041666666666666664 0.875
vt 0.041666666666666664 0.125
vt 0 0.125
vn 0 0 -1
vn 1 0 0
vn 0 0 1
vn -1 0 0
usemtl m_02b08f4f-b44a-675d-1358-27281c183b56
f 44/100/25 47/99/25 45/98/25 42/97/25
usemtl m_70e916d3-64b9-af6c-db55-13612a4b1fb7
f 43/104/26 44/103/26 42/102/26 41/101/26
f 48/108/27 43/107/27 41/106/27 46/105/27
f 47/112/28 48/111/28 46/110/28 45/109/28
o pole3
v -0.875 0.875 2
v -0.875 0.875 1.875
v -0.875 0.125 2
v -0.875 0.125 1.875
v -1 0.875 1.875
v -1 0.875 2
v -1 0.125 1.875
v -1 0.125 2
vt 0.9583333333333334 0.875
vt 1 0.875
vt 1 0.125
vt 0.9583333333333334 0.125
vt 0 0.875
vt 0.041666666666666664 0.875
vt 0.041666666666666664 0.125
vt 0 0.125
vt 0 0.875
vt 0.041666666666666664 0.875
vt 0.041666666666666664 0.125
vt 0 0.125
vt 0.9583333333333334 0.875
vt 1 0.875
vt 1 0.125
vt 0.9583333333333334 0.125
vn 0 0 -1
vn 1 0 0
vn 0 0 1
vn -1 0 0
usemtl m_70e916d3-64b9-af6c-db55-13612a4b1fb7
f 52/116/29 55/115/29 53/114/29 50/113/29
f 51/120/30 52/119/30 50/118/30 49/117/30
f 56/124/31 51/123/31 49/122/31 54/121/31
f 55/128/32 56/127/32 54/126/32 53/125/32