# Made in Blockbench 4.12.5
mtllib pipe_end.mtl

o pipe
v 0.625 0.0625 0.6875
v 0.625 0.375 0.6875
v 0.6875 0.0625 0.625
v 0.6875 0.375 0.625
v 0.6875 0.0625 0.375
v 0.6875 0.375 0.375
v 0.625 0.0625 0.3125
v 0.625 0.375 0.3125
v 0.375 0.0625 0.3125
v 0.375 0.375 0.3125
v 0.3125 0.0625 0.375
v 0.3125 0.375 0.375
v 0.3125 0.0625 0.625
v 0.3125 0.375 0.625
v 0.375 0.0625 0.6875
v 0.375 0.375 0.6875
vt 0.5 0.375
vt 0.655325 0.375
vt 0.655325 0.6875
vt 0.5 0.6875
vt 0.844675 0.5625
vt 1 0.5625
vt 1 0.875
vt 0.844675 0.875
vt 0.8125 0.5625
vt 0.967825 0.5625
vt 0.967825 0.875
vt 0.8125 0.875
vt 0.5 0.375
vt 0.655325 0.375
vt 0.655325 0.6875
vt 0.5 0.6875
vt 0.5 0.375
vt 0.655325 0.375
vt 0.655325 0.6875
vt 0.5 0.6875
vt 0.125 0.5
vt 0.280325 0.5
vt 0.280325 0.8125
vt 0.125 0.8125
vt 0.5 0.375
vt 0.655325 0.375
vt 0.655325 0.6875
vt 0.5 0.6875
vt 0.1875 0.0625
vt 0.342825 0.0625
vt 0.342825 0.375
vt 0.1875 0.375
vn 0.7071067811865476 0 0.7071067811865476
vn 1 0 0
vn 0.7071067811865476 0 -0.7071067811865476
vn 0 0 -1
vn -0.7071067811865476 0 -0.7071067811865476
vn -1 0 0
vn -0.7071067811865476 0 0.7071067811865476
vn 0 0 1
usemtl m_0f0079af-4c4c-933c-f0cc-41373f609063
f 1/1/1 3/2/1 4/3/1 2/4/1
f 3/5/2 5/6/2 6/7/2 4/8/2
f 5/9/3 7/10/3 8/11/3 6/12/3
f 7/13/4 9/14/4 10/15/4 8/16/4
f 9/17/5 11/18/5 12/19/5 10/20/5
f 11/21/6 13/22/6 14/23/6 12/24/6
f 13/25/7 15/26/7 16/27/7 14/28/7
f 15/29/8 1/30/8 2/31/8 16/32/8
o cylinder
v 0.5 0 0.5
v 0.5 0.0625 0.5
v 0.6875 0 0.8125
v 0.6875 0.0625 0.8125
v 0.8125 0 0.6875
v 0.8125 0.0625 0.6875
v 0.8125 0 0.3125
v 0.8125 0.0625 0.3125
v 0.6875 0 0.1875
v 0.6875 0.0625 0.1875
v 0.3125 0 0.1875
v 0.3125 0.0625 0.1875
v 0.1875 0 0.3125
v 0.1875 0.0625 0.3125
v 0.1875 0 0.6875
v 0.1875 0.0625 0.6875
v 0.3125 0 0.8125
v 0.3125 0.0625 0.8125
vt 0.8125 0.68125
vt 0.6875 0.8125
vt 0.5 0.5
vt 0.7411125 0
vt 1 0
vt 1 0.0625
vt 0.7411125 0.0625
vt 0.5 0.161751875
vt 0.739175 0.26081937499999996
vt 0.5 0.5
vt 0.8125 0.3125
vt 0.8125 0.6875
vt 0.5 0.5
vt 0.7411125 0
vt 1 0
vt 1 0.0625
vt 0.7411125 0.0625
vt 0.8125 0.36611249999999995
vt 0.8125 0.625
vt 0.5 0.49555625000000003
vt 0.6875 0.1875
vt 0.8125 0.310276875
vt 0.5 0.5
vt 0.7411125 0
vt 1 0
vt 1 0.0625
vt 0.7411125 0.0625
vt 0.838248125 0.510825
vt 0.739180625 0.75
vt 0.5 0.510825
vt 0.3125 0.1875
vt 0.6875 0.1875
vt 0.5 0.5
vt 0.7411125 0
vt 1 0
vt 1 0.0625
vt 0.7411125 0.0625
vt 0.6338875 0.8125
vt 0.375 0.8125
vt 0.50444375 0.5
vt 0.1875 0.3125
vt 0.3125 0.1875
vt 0.5 0.5
vt 0 0
vt 0.2588875 0
vt 0.2588875 0.0625
vt 0 0.0625
vt 0.489175 0.8125
vt 0.25 0.7134318749999999
vt 0.489175 0.474251875
vt 0.1875 0.6875
vt 0.1875 0.3125
vt 0.5 0.5
vt 0 0
vt 0.2588875 0
vt 0.2588875 0.0625
vt 0 0.0625
vt 0.1875 0.625
vt 0.1875 0.36611249999999995
vt 0.5 0.49555625000000003
vt 0.3125 0.8125
vt 0.1875 0.6875
vt 0.5 0.5
vt 0 0
vt 0.2588875 0
vt 0.2588875 0.0625
vt 0 0.0625
vt 0.1875 0.5
vt 0.286568125 0.260825
vt 0.525748125 0.5
vt 0.6875 0.8125
vt 0.3125 0.8125
vt 0.5 0.5
vt 0 0
vt 0.2588875 0
vt 0.2588875 0.0625
vt 0 0.0625
vt 0.375 0.1875
vt 0.6338875 0.1875
vt 0.50444375 0.5
vn 0 -1 0
vn 0.7071067811865476 0 0.7071067811865476
vn 0 1 0
vn 0 -1 0
vn 1 0 0
vn 0 1 0
vn 0 -1 0
vn 0.7071067811865476 0 -0.7071067811865476
vn 0 1 0
vn 0 -1 0
vn 0 0 -1
vn 0 1 0
vn 0 -1 0
vn -0.7071067811865476 0 -0.7071067811865476
vn 0 1 0
vn 0 -1 0
vn -1 0 0
vn 0 1 0
vn 0 -1 0
vn -0.7071067811865476 0 0.7071067811865476
vn 0 1 0
vn 0 -1 0
vn 0 0 1
vn 0 1 0
usemtl m_a4a42e48-ad0b-8039-5e1d-51d199cef3bc
f 21/33/9 19/34/9 17/35/9
f 19/36/10 21/37/10 22/38/10 20/39/10
usemtl m_0f0079af-4c4c-933c-f0cc-41373f609063
f 20/40/11 22/41/11 18/42/11
usemtl m_a4a42e48-ad0b-8039-5e1d-51d199cef3bc
f 23/43/12 21/44/12 17/45/12
f 21/46/13 23/47/13 24/48/13 22/49/13
usemtl m_0f0079af-4c4c-933c-f0cc-41373f609063
f 22/50/14 24/51/14 18/52/14
usemtl m_a4a42e48-ad0b-8039-5e1d-51d199cef3bc
f 25/53/15 23/54/15 17/55/15
f 23/56/16 25/57/16 26/58/16 24/59/16
usemtl m_0f0079af-4c4c-933c-f0cc-41373f609063
f 24/60/17 26/61/17 18/62/17
usemtl m_a4a42e48-ad0b-8039-5e1d-51d199cef3bc
f 27/63/18 25/64/18 17/65/18
f 25/66/19 27/67/19 28/68/19 26/69/19
usemtl m_0f0079af-4c4c-933c-f0cc-41373f609063
f 26/70/20 28/71/20 18/72/20
usemtl m_a4a42e48-ad0b-8039-5e1d-51d199cef3bc
f 29/73/21 27/74/21 17/75/21
f 27/76/22 29/77/22 30/78/22 28/79/22
usemtl m_0f0079af-4c4c-933c-f0cc-41373f609063
f 28/80/23 30/81/23 18/82/23
usemtl m_a4a42e48-ad0b-8039-5e1d-51d199cef3bc
f 31/83/24 29/84/24 17/85/24
f 29/86/25 31/87/25 32/88/25 30/89/25
usemtl m_0f0079af-4c4c-933c-f0cc-41373f609063
f 30/90/26 32/91/26 18/92/26
usemtl m_a4a42e48-ad0b-8039-5e1d-51d199cef3bc
f 33/93/27 31/94/27 17/95/27
f 31/96/28 33/97/28 34/98/28 32/99/28
usemtl m_0f0079af-4c4c-933c-f0cc-41373f609063
f 32/100/29 34/101/29 18/102/29
usemtl m_a4a42e48-ad0b-8039-5e1d-51d199cef3bc
f 19/103/30 33/104/30 17/105/30
f 33/106/31 19/107/31 20/108/31 34/109/31
usemtl m_0f0079af-4c4c-933c-f0cc-41373f609063
f 34/110/32 20/111/32 18/112/32
o screw1
v 0.53125 0.09375 0.78125
v 0.53125 0.09375 0.71875
v 0.53125 0.03125 0.78125
v 0.53125 0.03125 0.71875
v 0.46875 0.09375 0.71875
v 0.46875 0.09375 0.78125
v 0.46875 0.03125 0.71875
v 0.46875 0.03125 0.78125
vt 0 0.125
vt 0.125 0.125
vt 0.125 0
vt 0 0
vt 0 0.125
vt 0.125 0.125
vt 0.125 0
vt 0 0
vt 0 0.875
vt 0.125 0.875
vt 0.125 0.75
vt 0 0.75
vt 0 0.125
vt 0.125 0.125
vt 0.125 0
vt 0 0
vt 0 0.875
vt 0.125 0.875
vt 0.125 0.75
vt 0 0.75
vn 0 0 -1
vn 1 0 0
vn 0 0 1
vn -1 0 0
vn 0 1 0
usemtl m_a4a42e48-ad0b-8039-5e1d-51d199cef3bc
f 38/116/33 41/115/33 39/114/33 36/113/33
f 37/120/34 38/119/34 36/118/34 35/117/34
f 42/124/35 37/123/35 35/122/35 40/121/35
f 41/128/36 42/127/36 40/126/36 39/125/36
f 40/132/37 35/131/37 36/130/37 39/129/37
o screw2
v 0.28125 0.09375 0.53125
v 0.28125 0.09375 0.46875
v 0.28125 0.03125 0.53125
v 0.28125 0.03125 0.46875
v 0.21875 0.09375 0.46875
v 0.21875 0.09375 0.53125
v 0.21875 0.03125 0.46875
v 0.21875 0.03125 0.53125
vt 0 0.125
vt 0.125 0.125
vt 0.125 0
vt 0 0
vt 0 0.125
vt 0.125 0.125
vt 0.125 0
vt 0 0
vt 0 0.875
vt 0.125 0.875
vt 0.125 0.75
vt 0 0.75
vt 0 0.125
vt 0.125 0.125
vt 0.125 0
vt 0 0
vt 0 0.875
vt 0.125 0.875
vt 0.125 0.75
vt 0 0.75
vn 0 0 -1
vn 1 0 0
vn 0 0 1
vn -1 0 0
vn 0 1 0
usemtl m_a4a42e48-ad0b-8039-5e1d-51d199cef3bc
f 46/136/38 49/135/38 47/134/38 44/133/38
f 45/140/39 46/139/39 44/138/39 43/137/39
f 50/144/40 45/143/40 43/142/40 48/141/40
f 49/148/41 50/147/41 48/146/41 47/145/41
f 48/152/42 43/151/42 44/150/42 47/149/42
o screw7
v 0.53125 0.09375 0.28125
v 0.53125 0.09375 0.21875
v 0.53125 0.03125 0.28125
v 0.53125 0.03125 0.21875
v 0.46875 0.09375 0.21875
v 0.46875 0.09375 0.28125
v 0.46875 0.03125 0.21875
v 0.46875 0.03125 0.28125
vt 0 0.125
vt 0.125 0.125
vt 0.125 0
vt 0 0
vt 0 0.125
vt 0.125 0.125
vt 0.125 0
vt 0 0
vt 0 0.875
vt 0.125 0.875
vt 0.125 0.75
vt 0 0.75
vt 0 0.125
vt 0.125 0.125
vt 0.125 0
vt 0 0
vt 0 0.875
vt 0.125 0.875
vt 0.125 0.75
vt 0 0.75
vn 0 0 -1
vn 1 0 0
vn 0 0 1
vn -1 0 0
vn 0 1 0
usemtl m_a4a42e48-ad0b-8039-5e1d-51d199cef3bc
f 54/156/43 57/155/43 55/154/43 52/153/43
f 53/160/44 54/159/44 52/158/44 51/157/44
f 58/164/45 53/163/45 51/162/45 56/161/45
f 57/168/46 58/167/46 56/166/46 55/165/46
f 56/172/47 51/171/47 52/170/47 55/169/47
o screw8
v 0.78125 0.09375 0.53125
v 0.78125 0.09375 0.46875
v 0.78125 0.03125 0.53125
v 0.78125 0.03125 0.46875
v 0.71875 0.09375 0.46875
v 0.71875 0.09375 0.53125
v 0.71875 0.03125 0.46875
v 0.71875 0.03125 0.53125
vt 0 0.125
vt 0.125 0.125
vt 0.125 0
vt 0 0
vt 0 0.125
vt 0.125 0.125
vt 0.125 0
vt 0 0
vt 0 0.875
vt 0.125 0.875
vt 0.125 0.75
vt 0 0.75
vt 0 0.125
vt 0.125 0.125
vt 0.125 0
vt 0 0
vt 0 0.875
vt 0.125 0.875
vt 0.125 0.75
vt 0 0.75
vn 0 0 -1
vn 1 0 0
vn 0 0 1
vn -1 0 0
vn 0 1 0
usemtl m_a4a42e48-ad0b-8039-5e1d-51d199cef3bc
f 62/176/48 65/175/48 63/174/48 60/173/48
f 61/180/49 62/179/49 60/178/49 59/177/49
f 66/184/50 61/183/50 59/182/50 64/181/50
f 65/188/51 66/187/51 64/186/51 63/185/51
f 64/192/52 59/191/52 60/190/52 63/189/52
o screw3
v 0.328125 0.09375 0.328125
v 0.328125 0.09375 0.265625
v 0.328125 0.03125 0.328125
v 0.328125 0.03125 0.265625
v 0.265625 0.09375 0.265625
v 0.265625 0.09375 0.328125
v 0.265625 0.03125 0.265625
v 0.265625 0.03125 0.328125
vt 0 0.125
vt 0.125 0.125
vt 0.125 0
vt 0 0
vt 0 0.125
vt 0.125 0.125
vt 0.125 0
vt 0 0
vt 0 0.875
vt 0.125 0.875
vt 0.125 0.75
vt 0 0.75
vt 0 0.125
vt 0.125 0.125
vt 0.125 0
vt 0 0
vt 0 0.875
vt 0.125 0.875
vt 0.125 0.75
vt 0 0.75
vn 0 0 -1
vn 1 0 0
vn 0 0 1
vn -1 0 0
vn 0 1 0
usemtl m_a4a42e48-ad0b-8039-5e1d-51d199cef3bc
f 70/196/53 73/195/53 71/194/53 68/193/53
f 69/200/54 70/199/54 68/198/54 67/197/54
f 74/204/55 69/203/55 67/202/55 72/201/55
f 73/208/56 74/207/56 72/206/56 71/205/56
f 72/212/57 67/211/57 68/210/57 71/209/57
o screw4
v 0.734375 0.09375 0.328125
v 0.734375 0.09375 0.265625
v 0.734375 0.03125 0.328125
v 0.734375 0.03125 0.265625
v 0.671875 0.09375 0.265625
v 0.671875 0.09375 0.328125
v 0.671875 0.03125 0.265625
v 0.671875 0.03125 0.328125
vt 0 0.125
vt 0.125 0.125
vt 0.125 0
vt 0 0
vt 0 0.125
vt 0.125 0.125
vt 0.125 0
vt 0 0
vt 0 0.875
vt 0.125 0.875
vt 0.125 0.75
vt 0 0.75
vt 0 0.125
vt 0.125 0.125
vt 0.125 0
vt 0 0
vt 0 0.875
vt 0.125 0.875
vt 0.125 0.75
vt 0 0.75
vn 0 0 -1
vn 1 0 0
vn 0 0 1
vn -1 0 0
vn 0 1 0
usemtl m_a4a42e48-ad0b-8039-5e1d-51d199cef3bc
f 78/216/58 81/215/58 79/214/58 76/213/58
f 77/220/59 78/219/59 76/218/59 75/217/59
f 82/224/60 77/223/60 75/222/60 80/221/60
f 81/228/61 82/227/61 80/226/61 79/225/61
f 80/232/62 75/231/62 76/230/62 79/229/62
o screw5
v 0.734375 0.09375 0.734375
v 0.734375 0.09375 0.671875
v 0.734375 0.03125 0.734375
v 0.734375 0.03125 0.671875
v 0.671875 0.09375 0.671875
v 0.671875 0.09375 0.734375
v 0.671875 0.03125 0.671875
v 0.671875 0.03125 0.734375
vt 0 0.125
vt 0.125 0.125
vt 0.125 0
vt 0 0
vt 0 0.125
vt 0.125 0.125
vt 0.125 0
vt 0 0
vt 0 0.875
vt 0.125 0.875
vt 0.125 0.75
vt 0 0.75
vt 0 0.125
vt 0.125 0.125
vt 0.125 0
vt 0 0
vt 0 0.875
vt 0.125 0.875
vt 0.125 0.75
vt 0 0.75
vn 0 0 -1
vn 1 0 0
vn 0 0 1
vn -1 0 0
vn 0 1 0
usemtl m_a4a42e48-ad0b-8039-5e1d-51d199cef3bc
f 86/236/63 89/235/63 87/234/63 84/233/63
f 85/240/64 86/239/64 84/238/64 83/237/64
f 90/244/65 85/243/65 83/242/65 88/241/65
f 89/248/66 90/247/66 88/246/66 87/245/66
f 88/252/67 83/251/67 84/250/67 87/249/67
o screw6
v 0.328125 0.09375 0.734375
v 0.328125 0.09375 0.671875
v 0.328125 0.03125 0.734375
v 0.328125 0.03125 0.671875
v 0.265625 0.09375 0.671875
v 0.265625 0.09375 0.734375
v 0.265625 0.03125 0.671875
v 0.265625 0.03125 0.734375
vt 0 0.125
vt 0.125 0.125
vt 0.125 0
vt 0 0
vt 0 0.125
vt 0.125 0.125
vt 0.125 0
vt 0 0
vt 0 0.875
vt 0.125 0.875
vt 0.125 0.75
vt 0 0.75
vt 0 0.125
vt 0.125 0.125
vt 0.125 0
vt 0 0
vt 0 0.875
vt 0.125 0.875
vt 0.125 0.75
vt 0 0.75
vn 0 0 -1
vn 1 0 0
vn 0 0 1
vn -1 0 0
vn 0 1 0
usemtl m_a4a42e48-ad0b-8039-5e1d-51d199cef3bc
f 94/256/68 97/255/68 95/254/68 92/253/68
f 93/260/69 94/259/69 92/258/69 91/257/69
f 98/264/70 93/263/70 91/262/70 96/261/70
f 97/268/71 98/267/71 96/266/71 95/265/71
f 96/272/72 91/271/72 92/270/72 95/269/72