# Made in Blockbench 4.12.4
mtllib steel_catwalk_stairs.mtl

o path1
v 0.875 0.25 0.5
v 0.875 0.25 0
v 0.875 0.25 0.5
v 0.875 0.25 0
v 0.125 0.25 0
v 0.125 0.25 0.5
v 0.125 0.25 0
v 0.125 0.25 0.5
vt 0.125 0.5
vt 0.875 0.5
vt 0.875 0
vt 0.125 0
vt 0.125 0.5
vt 0.875 0.5
vt 0.875 0
vt 0.125 0
vn 0 1 0
vn 0 -1 0
usemtl m_069f2cea-daf8-c66b-6015-9e1106010ba1
f 6/4/1 1/3/1 2/2/1 5/1/1
f 7/8/2 4/7/2 3/6/2 8/5/2
o path2
v 0.875 0.75 1
v 0.875 0.75 0.5
v 0.875 0.75 1
v 0.875 0.75 0.5
v 0.125 0.75 0.5
v 0.125 0.75 1
v 0.125 0.75 0.5
v 0.125 0.75 1
vt 0.125 1
vt 0.875 1
vt 0.875 0.5
vt 0.125 0.5
vt 0.125 1
vt 0.875 1
vt 0.875 0.5
vt 0.125 0.5
vn 0 1 0
vn 0 -1 0
usemtl m_069f2cea-daf8-c66b-6015-9e1106010ba1
f 14/12/3 9/11/3 10/10/3 13/9/3
f 15/16/4 12/15/4 11/14/4 16/13/4
o beam1
v 0.125 1 1
v 0.125 0 0
v 0.125 0.875 1
v 0.125 -0.125 0
v 0 1 1
v 0 0 0
v 0 0.875 1
v 0 -0.125 0
vt 0.125 1
vt 0 1
vt 0 0
vt 0.125 0
vt 0.125 1
vt 0 1
vt 0 0
vt 0.125 0
vt 1 0
vt 1 1
vt 0.875 1
vt 0.875 0
vt 1 0
vt 1 1
vt 0.875 1
vt 0.875 0
vt 1 0.875
vt 1 1
vt 0.875 1
vt 0.875 0.875
vt 0.125 0.875
vt 0.125 1
vt 0 1
vt 0 0.875
vn 1 0 0
vn -1 0 0
vn 0 0.7071067811865476 -0.7071067811865476
vn 0 -0.7071067811865476 0.7071067811865476
vn 0 0 1
vn 0 0 -1
usemtl m_069f2cea-daf8-c66b-6015-9e1106010ba1
f 20/17/5 18/18/5 17/19/5 19/20/5
f 23/21/6 21/22/6 22/23/6 24/24/6
f 17/25/7 18/26/7 22/27/7 21/28/7
f 20/29/8 19/30/8 23/31/8 24/32/8
f 19/33/9 17/34/9 21/35/9 23/36/9
f 24/37/10 22/38/10 18/39/10 20/40/10
o beam2
v 1 1 1
v 1 0 0
v 1 0.875 1
v 1 -0.125 0
v 0.875 1 1
v 0.875 0 0
v 0.875 0.875 1
v 0.875 -0.125 0
vt 0.125 1
vt 0 1
vt 0 0
vt 0.125 0
vt 0.125 1
vt 0 1
vt 0 0
vt 0.125 0
vt 0.125 0
vt 0.125 1
vt 0 1
vt 0 0
vt 0.125 0
vt 0.125 1
vt 0 1
vt 0 0
vt 0.125 0.875
vt 0.125 1
vt 0 1
vt 0 0.875
vt 0.125 0.875
vt 0.125 1
vt 0 1
vt 0 0.875
vn 1 0 0
vn -1 0 0
vn 0 0.7071067811865476 -0.7071067811865476
vn 0 -0.7071067811865476 0.7071067811865476
vn 0 0 1
vn 0 0 -1
usemtl m_069f2cea-daf8-c66b-6015-9e1106010ba1
f 28/41/11 26/42/11 25/43/11 27/44/11
f 31/45/12 29/46/12 30/47/12 32/48/12
f 25/49/13 26/50/13 30/51/13 29/52/13
f 28/53/14 27/54/14 31/55/14 32/56/14
f 27/57/15 25/58/15 29/59/15 31/60/15
f 32/61/16 30/62/16 26/63/16 28/64/16