# Made in Blockbench 4.12.4
mtllib steel_catwalk_support.mtl

o middle
v 0.875 1 1
v 0.875 1 0
v 0.875 1 1
v 0.875 1 0
v 0.125 1 0
v 0.125 1 1
v 0.125 1 0
v 0.125 1 1
vt 0.125 1
vt 0.875 1
vt 0.875 0
vt 0.125 0
vt 0.125 1
vt 0.875 1
vt 0.875 0
vt 0.125 0
vn 0 1 0
vn 0 -1 0
usemtl m_de17c83d-83c8-3df6-ac3f-1006cfcd8f13
f 6/4/1 1/3/1 2/2/1 5/1/1
f 7/8/2 4/7/2 3/6/2 8/5/2
o side1
v 0.125 1 1
v 0.125 1 0
v 0.125 0.875 1
v 0.125 0.875 0
v 0 1 0
v 0 1 1
v 0 0.875 0
v 0 0.875 1
vt 0.875 1
vt 1 1
vt 1 0.875
vt 0.875 0.875
vt 0 0
vt 0 1
vt 0.125 1
vt 0.125 0
vt 0 1
vt 0.125 1
vt 0.125 0.875
vt 0 0.875
vt 0 0
vt 0 1
vt 0.125 1
vt 0.125 0
vt 0.875 1
vt 1 1
vt 1 0
vt 0.875 0
vt 0.875 1
vt 1 1
vt 1 0
vt 0.875 0
vn 0 0 -1
vn 1 0 0
vn 0 0 1
vn -1 0 0
vn 0 1 0
vn 0 -1 0
usemtl m_de17c83d-83c8-3df6-ac3f-1006cfcd8f13
f 12/12/3 15/11/3 13/10/3 10/9/3
f 11/16/4 12/15/4 10/14/4 9/13/4
f 16/20/5 11/19/5 9/18/5 14/17/5
f 15/24/6 16/23/6 14/22/6 13/21/6
f 14/28/7 9/27/7 10/26/7 13/25/7
f 15/32/8 12/31/8 11/30/8 16/29/8
o side2
v 1 1 1
v 1 1 0
v 1 0.875 1
v 1 0.875 0
v 0.875 1 0
v 0.875 1 1
v 0.875 0.875 0
v 0.875 0.875 1
vt 0 1
vt 0.125 1
vt 0.125 0.875
vt 0 0.875
vt 0 0
vt 0 1
vt 0.125 1
vt 0.125 0
vt 0.875 1
vt 1 1
vt 1 0.875
vt 0.875 0.875
vt 0 0
vt 0 1
vt 0.125 1
vt 0.125 0
vt 0 1
vt 0.125 1
vt 0.125 0
vt 0 0
vt 0 1
vt 0.125 1
vt 0.125 0
vt 0 0
vn 0 0 -1
vn 1 0 0
vn 0 0 1
vn -1 0 0
vn 0 1 0
vn 0 -1 0
usemtl m_de17c83d-83c8-3df6-ac3f-1006cfcd8f13
f 20/36/9 23/35/9 21/34/9 18/33/9
f 19/40/10 20/39/10 18/38/10 17/37/10
f 24/44/11 19/43/11 17/42/11 22/41/11
f 23/48/12 24/47/12 22/46/12 21/45/12
f 22/52/13 17/51/13 18/50/13 21/49/13
f 23/56/14 20/55/14 19/54/14 24/53/14
o pole1
v 0.125 0.875 0.875
v 0.125 0.875 0.75
v 0.25 0 0.875
v 0.25 0 0.75
v 0 0.875 0.875
v 0 0.875 0.75
v 0.125 0 0.875
v 0.125 0 0.75
vt 0.5625 0
vt 0.5625 0.875
vt 0.4375 0.875
vt 0.4375 0
vt 0.5625 0
vt 0.5625 0.875
vt 0.4375 0.875
vt 0.4375 0
vt 0.5625 0.4375
vt 0.5625 0.5625
vt 0.4375 0.5625
vt 0.4375 0.4375
vt 0.5625 0
vt 0.5625 0.875
vt 0.4375 0.875
vt 0.4375 0
vt 0.5625 0
vt 0.5625 0.875
vt 0.4375 0.875
vt 0.4375 0
vn 0.9899494936611667 0.14142135623730953 0
vn -0.9899494936611667 -0.14142135623730953 0
vn 0 -1 0
vn 0 0 1
vn 0 0 -1
usemtl m_f9a983d4-73c0-21cc-d470-13dd81cc9efd
f 28/57/15 26/58/15 25/59/15 27/60/15
f 31/61/16 29/62/16 30/63/16 32/64/16
f 28/65/17 27/66/17 31/67/17 32/68/17
f 27/69/18 25/70/18 29/71/18 31/72/18
f 32/73/19 30/74/19 26/75/19 28/76/19
o pole2
v 1 0.875 0.875
v 1 0.875 0.75
v 0.875 0 0.875
v 0.875 0 0.75
v 0.875 0.875 0.875
v 0.875 0.875 0.75
v 0.75 0 0.875
v 0.75 0 0.75
vt 0.5625 0
vt 0.5625 0.875
vt 0.4375 0.875
vt 0.4375 0
vt 0.5625 0
vt 0.5625 0.875
vt 0.4375 0.875
vt 0.4375 0
vt 0.5625 0.4375
vt 0.5625 0.5625
vt 0.4375 0.5625
vt 0.4375 0.4375
vt 0.5625 0
vt 0.5625 0.875
vt 0.4375 0.875
vt 0.4375 0
vt 0.5625 0
vt 0.5625 0.875
vt 0.4375 0.875
vt 0.4375 0
vn 0.9899494936611667 -0.14142135623730953 0
vn -0.9899494936611667 0.14142135623730953 0
vn 0 -1 0
vn 0 0 1
vn 0 0 -1
usemtl m_f9a983d4-73c0-21cc-d470-13dd81cc9efd
f 36/77/20 34/78/20 33/79/20 35/80/20
f 39/81/21 37/82/21 38/83/21 40/84/21
f 36/85/22 35/86/22 39/87/22 40/88/22
f 35/89/23 33/90/23 37/91/23 39/92/23
f 40/93/24 38/94/24 34/95/24 36/96/24
o pole3
v 1 0.875 0.25
v 1 0.875 0.125
v 0.875 0 0.25
v 0.875 0 0.125
v 0.875 0.875 0.25
v 0.875 0.875 0.125
v 0.75 0 0.25
v 0.75 0 0.125
vt 0.5625 0
vt 0.5625 0.875
vt 0.4375 0.875
vt 0.4375 0
vt 0.5625 0
vt 0.5625 0.875
vt 0.4375 0.875
vt 0.4375 0
vt 0.5625 0.4375
vt 0.5625 0.5625
vt 0.4375 0.5625
vt 0.4375 0.4375
vt 0.5625 0
vt 0.5625 0.875
vt 0.4375 0.875
vt 0.4375 0
vt 0.5625 0
vt 0.5625 0.875
vt 0.4375 0.875
vt 0.4375 0
vn 0.9899494936611667 -0.14142135623730953 0
vn -0.9899494936611667 0.14142135623730953 0
vn 0 -1 0
vn 0 0 1
vn 0 0 -1
usemtl m_f9a983d4-73c0-21cc-d470-13dd81cc9efd
f 44/97/25 42/98/25 41/99/25 43/100/25
f 47/101/26 45/102/26 46/103/26 48/104/26
f 44/105/27 43/106/27 47/107/27 48/108/27
f 43/109/28 41/110/28 45/111/28 47/112/28
f 48/113/29 46/114/29 42/115/29 44/116/29
o pole4
v 0.125 0.875 0.25
v 0.125 0.875 0.125
v 0.25 0 0.25
v 0.25 0 0.125
v 0 0.875 0.25
v 0 0.875 0.125
v 0.125 0 0.25
v 0.125 0 0.125
vt 0.5625 0
vt 0.5625 0.875
vt 0.4375 0.875
vt 0.4375 0
vt 0.5625 0
vt 0.5625 0.875
vt 0.4375 0.875
vt 0.4375 0
vt 0.5625 0.4375
vt 0.5625 0.5625
vt 0.4375 0.5625
vt 0.4375 0.4375
vt 0.5625 0
vt 0.5625 0.875
vt 0.4375 0.875
vt 0.4375 0
vt 0.5625 0
vt 0.5625 0.875
vt 0.4375 0.875
vt 0.4375 0
vn 0.9899494936611667 0.14142135623730953 0
vn -0.9899494936611667 -0.14142135623730953 0
vn 0 -1 0
vn 0 0 1
vn 0 0 -1
usemtl m_f9a983d4-73c0-21cc-d470-13dd81cc9efd
f 52/117/30 50/118/30 49/119/30 51/120/30
f 55/121/31 53/122/31 54/123/31 56/124/31
f 52/125/32 51/126/32 55/127/32 56/128/32
f 51/129/33 49/130/33 53/131/33 55/132/33
f 56/133/34 54/134/34 50/135/34 52/136/34