# Made in Blockbench 4.12.4
mtllib steel_catwalk_stairs_support.mtl

o path1
v 0.875 0.25 0.5
v 0.875 0.25 0
v 0.875 0.25 0.5
v 0.875 0.25 0
v 0.125 0.25 0
v 0.125 0.25 0.5
v 0.125 0.25 0
v 0.125 0.25 0.5
vt 0.125 0.5
vt 0.875 0.5
vt 0.875 0
vt 0.125 0
vt 0.125 0.5
vt 0.875 0.5
vt 0.875 0
vt 0.125 0
vn 0 1 0
vn 0 -1 0
usemtl m_069f2cea-daf8-c66b-6015-9e1106010ba1
f 6/4/1 1/3/1 2/2/1 5/1/1
f 7/8/2 4/7/2 3/6/2 8/5/2
o path2
v 0.875 0.75 1
v 0.875 0.75 0.5
v 0.875 0.75 1
v 0.875 0.75 0.5
v 0.125 0.75 0.5
v 0.125 0.75 1
v 0.125 0.75 0.5
v 0.125 0.75 1
vt 0.125 1
vt 0.875 1
vt 0.875 0.5
vt 0.125 0.5
vt 0.125 1
vt 0.875 1
vt 0.875 0.5
vt 0.125 0.5
vn 0 1 0
vn 0 -1 0
usemtl m_069f2cea-daf8-c66b-6015-9e1106010ba1
f 14/12/3 9/11/3 10/10/3 13/9/3
f 15/16/4 12/15/4 11/14/4 16/13/4
o beam1
v 0.125 1 1
v 0.125 0 0
v 0.125 0.875 1
v 0.125 -0.125 0
v 0 1 1
v 0 0 0
v 0 0.875 1
v 0 -0.125 0
vt 0.125 1
vt 0 1
vt 0 0
vt 0.125 0
vt 0.125 1
vt 0 1
vt 0 0
vt 0.125 0
vt 1 0
vt 1 1
vt 0.875 1
vt 0.875 0
vt 1 0
vt 1 1
vt 0.875 1
vt 0.875 0
vt 1 0.875
vt 1 1
vt 0.875 1
vt 0.875 0.875
vt 0.125 0.875
vt 0.125 1
vt 0 1
vt 0 0.875
vn 1 0 0
vn -1 0 0
vn 0 0.7071067811865476 -0.7071067811865476
vn 0 -0.7071067811865476 0.7071067811865476
vn 0 0 1
vn 0 0 -1
usemtl m_069f2cea-daf8-c66b-6015-9e1106010ba1
f 20/17/5 18/18/5 17/19/5 19/20/5
f 23/21/6 21/22/6 22/23/6 24/24/6
f 17/25/7 18/26/7 22/27/7 21/28/7
f 20/29/8 19/30/8 23/31/8 24/32/8
f 19/33/9 17/34/9 21/35/9 23/36/9
f 24/37/10 22/38/10 18/39/10 20/40/10
o beam2
v 1 1 1
v 1 0 0
v 1 0.875 1
v 1 -0.125 0
v 0.875 1 1
v 0.875 0 0
v 0.875 0.875 1
v 0.875 -0.125 0
vt 0.125 1
vt 0 1
vt 0 0
vt 0.125 0
vt 0.125 1
vt 0 1
vt 0 0
vt 0.125 0
vt 0.125 0
vt 0.125 1
vt 0 1
vt 0 0
vt 0.125 0
vt 0.125 1
vt 0 1
vt 0 0
vt 0.125 0.875
vt 0.125 1
vt 0 1
vt 0 0.875
vt 0.125 0.875
vt 0.125 1
vt 0 1
vt 0 0.875
vn 1 0 0
vn -1 0 0
vn 0 0.7071067811865476 -0.7071067811865476
vn 0 -0.7071067811865476 0.7071067811865476
vn 0 0 1
vn 0 0 -1
usemtl m_069f2cea-daf8-c66b-6015-9e1106010ba1
f 28/41/11 26/42/11 25/43/11 27/44/11
f 31/45/12 29/46/12 30/47/12 32/48/12
f 25/49/13 26/50/13 30/51/13 29/52/13
f 28/53/14 27/54/14 31/55/14 32/56/14
f 27/57/15 25/58/15 29/59/15 31/60/15
f 32/61/16 30/62/16 26/63/16 28/64/16
o support1
v 0.125 0.125 0.25
v 0.125 0.125 0.125
v 0.25 0 0.25
v 0.25 0 0.125
v 0 0.125 0.25
v 0 0.125 0.125
v 0.125 0 0.25
v 0.125 0 0.125
vt 0.5625 0
vt 0.5625 0.125
vt 0.4375 0.125
vt 0.4375 0
vt 0.5625 0
vt 0.5625 0.125
vt 0.4375 0.125
vt 0.4375 0
vt 0.5625 0.4375
vt 0.5625 0.5625
vt 0.4375 0.5625
vt 0.4375 0.4375
vt 0.5625 0
vt 0.5625 0.125
vt 0.4375 0.125
vt 0.4375 0
vt 0.5625 0
vt 0.5625 0.125
vt 0.4375 0.125
vt 0.4375 0
vn 0.7071067811865476 0.7071067811865476 0
vn -0.7071067811865476 -0.7071067811865476 0
vn 0 -1 0
vn 0 0 1
vn 0 0 -1
usemtl m_0ec10178-7868-43bc-8d30-60d598292c22
f 36/65/17 34/66/17 33/67/17 35/68/17
f 39/69/18 37/70/18 38/71/18 40/72/18
f 36/73/19 35/74/19 39/75/19 40/76/19
f 35/77/20 33/78/20 37/79/20 39/80/20
f 40/81/21 38/82/21 34/83/21 36/84/21
o support2
v 1 0.125 0.25
v 1 0.125 0.125
v 0.875 0 0.25
v 0.875 0 0.125
v 0.875 0.125 0.25
v 0.875 0.125 0.125
v 0.75 0 0.25
v 0.75 0 0.125
vt 0.5625 0
vt 0.5625 0.125
vt 0.4375 0.125
vt 0.4375 0
vt 0.5625 0
vt 0.5625 0.125
vt 0.4375 0.125
vt 0.4375 0
vt 0.5625 0.4375
vt 0.5625 0.5625
vt 0.4375 0.5625
vt 0.4375 0.4375
vt 0.5625 0
vt 0.5625 0.125
vt 0.4375 0.125
vt 0.4375 0
vt 0.5625 0
vt 0.5625 0.125
vt 0.4375 0.125
vt 0.4375 0
vn 0.7071067811865476 -0.7071067811865476 0
vn -0.7071067811865476 0.7071067811865476 0
vn 0 -1 0
vn 0 0 1
vn 0 0 -1
usemtl m_0ec10178-7868-43bc-8d30-60d598292c22
f 44/85/22 42/86/22 41/87/22 43/88/22
f 47/89/23 45/90/23 46/91/23 48/92/23
f 44/93/24 43/94/24 47/95/24 48/96/24
f 43/97/25 41/98/25 45/99/25 47/100/25
f 48/101/26 46/102/26 42/103/26 44/104/26
o support3
v 1 0.75 0.875
v 1 0.75 0.75
v 0.875 0 0.875
v 0.875 0 0.75
v 0.875 0.75 0.875
v 0.875 0.75 0.75
v 0.75 0 0.875
v 0.75 0 0.75
vt 0.5625 0
vt 0.5625 0.75
vt 0.4375 0.75
vt 0.4375 0
vt 0.5625 0
vt 0.5625 0.75
vt 0.4375 0.75
vt 0.4375 0
vt 0.5625 0.4375
vt 0.5625 0.5625
vt 0.4375 0.5625
vt 0.4375 0.4375
vt 0.5625 0
vt 0.5625 0.75
vt 0.4375 0.75
vt 0.4375 0
vt 0.5625 0
vt 0.5625 0.75
vt 0.4375 0.75
vt 0.4375 0
vn 0.9863939238321437 -0.1643989873053573 0
vn -0.9863939238321437 0.1643989873053573 0
vn 0 -1 0
vn 0 0 1
vn 0 0 -1
usemtl m_0ec10178-7868-43bc-8d30-60d598292c22
f 52/105/27 50/106/27 49/107/27 51/108/27
f 55/109/28 53/110/28 54/111/28 56/112/28
f 52/113/29 51/114/29 55/115/29 56/116/29
f 51/117/30 49/118/30 53/119/30 55/120/30
f 56/121/31 54/122/31 50/123/31 52/124/31
o support4
v 0.125 0.75 0.875
v 0.125 0.75 0.75
v 0.25 0 0.875
v 0.25 0 0.75
v 0 0.75 0.875
v 0 0.75 0.75
v 0.125 0 0.875
v 0.125 0 0.75
vt 0.5625 0
vt 0.5625 0.75
vt 0.4375 0.75
vt 0.4375 0
vt 0.5625 0
vt 0.5625 0.75
vt 0.4375 0.75
vt 0.4375 0
vt 0.5625 0.4375
vt 0.5625 0.5625
vt 0.4375 0.5625
vt 0.4375 0.4375
vt 0.5625 0
vt 0.5625 0.75
vt 0.4375 0.75
vt 0.4375 0
vt 0.5625 0
vt 0.5625 0.75
vt 0.4375 0.75
vt 0.4375 0
vn 0.9863939238321437 0.1643989873053573 0
vn -0.9863939238321437 -0.1643989873053573 0
vn 0 -1 0
vn 0 0 1
vn 0 0 -1
usemtl m_0ec10178-7868-43bc-8d30-60d598292c22
f 60/125/32 58/126/32 57/127/32 59/128/32
f 63/129/33 61/130/33 62/131/33 64/132/33
f 60/133/34 59/134/34 63/135/34 64/136/34
f 59/137/35 57/138/35 61/139/35 63/140/35
f 64/141/36 62/142/36 58/143/36 60/144/36