# Made in Blockbench 4.12.4
mtllib large_wheel_crank.mtl

o tube
v 0.6624600000000002 0.43750000000000017 1
v 0.6624599999999999 0.5625000000000002 1
v 0.6505131250000001 0.43750000000000017 0.96323125
v 0.6505131249999999 0.5625000000000002 0.96323125
v 0.9253256249999999 0.43750000000000044 0.809016875
v 0.9253256249999999 0.5625000000000004 0.809016875
v 0.8940481250000001 0.43750000000000044 0.7862925000000001
v 0.8940481250000001 0.5625000000000004 0.7862925000000001
v 1.0257312500000002 0.43750000000000056 0.5
v 1.0257312499999998 0.5625000000000006 0.5
v 0.9870700000000001 0.43750000000000056 0.5
v 0.9870699999999999 0.5625000000000006 0.5
v 0.9253256249999999 0.43750000000000044 0.19098312499999998
v 0.9253256249999999 0.5625000000000004 0.19098312499999998
v 0.8940481250000001 0.43750000000000044 0.2137075
v 0.8940481250000001 0.5625000000000004 0.2137075
v 0.6624600000000002 0.43750000000000017 0
v 0.6624599999999999 0.5625000000000002 0
v 0.6505131250000001 0.43750000000000017 0.03676875000000002
v 0.6505131249999999 0.5625000000000002 0.03676875000000002
v 0.33754000000000006 0.4374999999999998 0
v 0.33753999999999995 0.5624999999999998 0
v 0.3494868750000001 0.4374999999999998 0.03676875000000002
v 0.34948687499999986 0.5624999999999998 0.03676875000000002
v 0.07467437500000002 0.43749999999999944 0.19098312499999998
v 0.0746743749999999 0.5624999999999994 0.19098312499999998
v 0.10595187499999997 0.4374999999999995 0.2137075
v 0.10595187499999986 0.5624999999999996 0.2137075
v -0.025731249999999872 0.43749999999999933 0.5
v -0.025731250000000094 0.5624999999999993 0.5
v 0.012930000000000053 0.4374999999999994 0.5
v 0.012929999999999942 0.5624999999999994 0.5
v 0.07467437500000002 0.43749999999999944 0.809016875
v 0.0746743749999999 0.5624999999999994 0.809016875
v 0.10595187499999997 0.4374999999999995 0.7862925000000001
v 0.10595187499999986 0.5624999999999996 0.7862925000000001
v 0.33754000000000006 0.4374999999999998 1
v 0.33753999999999995 0.5624999999999998 1
v 0.3494868750000001 0.4374999999999998 0.96323125
v 0.34948687499999986 0.5624999999999998 0.96323125
vt 0 0.9375
vt 0.1624625 0.9375
vt 0.1624625 1
vt 0 1
vt 0.1505125 1
vt 0 1
vt 0 0.9375
vt 0.1505125 0.9375
vt 0 0.9940278125
vt 0 0.843514375
vt 0.01838375 0.837541875
vt 0.0183853125 1
vt 0 0.9816146875
vt 0.162458125 0.9816146875
vt 0.1564859375 0.99999875
vt 0.0059721875 1
vt 0 0.9375
vt 0.1624625 0.9375
vt 0.1624625 1
vt 0 1
vt 0.1505125 1
vt 0 1
vt 0 0.9375
vt 0.1505125 0.9375
vt 0 0.994025625
vt 0 0.8435128125
vt 0.0183853125 0.837539375
vt 0.0183834375 1
vt 0 0.981615
vt 0.162460625 0.981615
vt 0.1564871875 1
vt 0.0059740625 0.999998125
vt 0 0.9375
vt 0.1624625 0.9375
vt 0.1624625 1
vt 0 1
vt 0.1505125 1
vt 0 1
vt 0 0.9375
vt 0.1505125 0.9375
vt 0.1564871875 1
vt 0.005974375 1
vt 0 0.9816165625
vt 0.162460625 0.9816146875
vt 0.018385 0.837539375
vt 0.018385 1
vt 0.000001875 0.9940259375
vt 0 0.8435128125
vt 0 0.9375
vt 0.1624625 0.9375
vt 0.1624625 1
vt 0 1
vt 0.1505125 1
vt 0 1
vt 0 0.9375
vt 0.1505125 0.9375
vt 0.156485625 1
vt 0.0059721875 1
vt 0 0.9816146875
vt 0.162458125 0.98161625
vt 0.0183853125 0.837541875
vt 0.0183853125 1
vt 0 0.9940278125
vt 0.00000125 0.8435140624999999
vt 0 0.9375
vt 0.1624625 0.9375
vt 0.1624625 1
vt 0 1
vt 0.1505125 1
vt 0 1
vt 0 0.9375
vt 0.1505125 0.9375
vt 0.1564875 1
vt 0.005975 1
vt 0 0.981615625
vt 0.1624625 0.981615625
vt 0.1624625 1
vt 0 1
vt 0.005975 0.981615625
vt 0.1564875 0.981615625
vt 0 0.9375
vt 0.1624625 0.9375
vt 0.1624625 1
vt 0 1
vt 0.1505125 1
vt 0 1
vt 0 0.9375
vt 0.1505125 0.9375
vt 0.0183853125 0.8435140624999999
vt 0.0183853125 0.9940275
vt 0.0000015625 1
vt 0 0.837541875
vt 0.162458125 1
vt 0 1
vt 0.0059721875 0.9816159375
vt 0.1564859375 0.9816146875
vt 0 0.9375
vt 0.1624625 0.9375
vt 0.1624625 1
vt 0 1
vt 0.1505125 1
vt 0 1
vt 0 0.9375
vt 0.1505125 0.9375
vt 0.0183853125 0.8435134375
vt 0.0183853125 0.9940265625
vt 0 1
vt 0.000001875 0.837539375
vt 0.162460625 1
vt 0 1
vt 0.00597375 0.981615
vt 0.1564865625 0.9816165625
vt 0 0.9375
vt 0.1624625 0.9375
vt 0.1624625 1
vt 0 1
vt 0.1505125 1
vt 0 1
vt 0 0.9375
vt 0.1505125 0.9375
vt 0.0059734375 0.9816146875
vt 0.1564865625 0.9816146875
vt 0.162460625 0.999998125
vt 0 1
vt 0 1
vt 0 0.837539375
vt 0.0183834375 0.8435134375
vt 0.018385 0.99402625
vt 0 0.9375
vt 0.1624625 0.9375
vt 0.1624625 1
vt 0 1
vt 0.1505125 1
vt 0 1
vt 0 0.9375
vt 0.1505125 0.9375
vt 0.0059725 0.9816146875
vt 0.1564859375 0.9816146875
vt 0.162458125 1
vt 0 0.9999984375
vt 0 1
vt 0 0.837541875
vt 0.0183853125 0.8435140624999999
vt 0.0183840625 0.9940278125
vt 0 0.9375
vt 0.1624625 0.9375
vt 0.1624625 1
vt 0 1
vt 0.1505125 1
vt 0 1
vt 0 0.9375
vt 0.1505125 0.9375
vt 0.005975 0.981615625
vt 0.1564875 0.981615625
vt 0.1624625 1
vt 0 1
vt 0 0.981615625
vt 0.1624625 0.981615625
vt 0.1564875 1
vt 0.005975 1
vn 0.5877853918616451 6.8112293888988e-16 0.8090168929719901
vn -0.5877857207196445 -6.8112331996897805e-16 -0.809016654042479
vn 1.1587952819525071e-15 -1 0
vn -1.1587952819525071e-15 1 0
vn 0.9510565562344971 1.1020798502345344e-15 0.30901687145426077
vn -0.9510567087574751 -1.1020800269774417e-15 -0.30901640203620134
vn 1.1587952819525071e-15 -1 0
vn -1.1587952819525071e-15 1 0
vn 0.9510565562344971 1.1020798502345344e-15 -0.30901687145426077
vn -0.9510567087574751 -1.1020800269774417e-15 0.30901640203620134
vn 1.1587952819525071e-15 -1 0
vn -1.1587952819525071e-15 1 0
vn 0.5877853918616451 6.8112293888988e-16 -0.8090168929719901
vn -0.5877857207196445 -6.8112331996897805e-16 0.809016654042479
vn 1.1587952819525071e-15 -1 0
vn -1.1587952819525071e-15 1 0
vn 0 0 -1
vn 0 0 1
vn 1.1587952819525071e-15 -1 0
vn -1.1587952819525071e-15 1 0
vn -0.5877853918616448 -6.811229388898796e-16 -0.8090168929719902
vn 0.5877857207196445 6.8112331996897805e-16 0.809016654042479
vn 1.1587952819525071e-15 -1 0
vn -1.1587952819525071e-15 1 0
vn -0.9510565562344971 -1.1020798502345346e-15 -0.30901687145426043
vn 0.9510567087574751 1.1020800269774417e-15 0.30901640203620134
vn 1.1587952819525071e-15 -1 0
vn -1.1587952819525071e-15 1 0
vn -0.9510565562344971 -1.1020798502345346e-15 0.30901687145426043
vn 0.9510567087574751 1.1020800269774417e-15 -0.30901640203620134
vn 1.1587952819525071e-15 -1 0
vn -1.1587952819525071e-15 1 0
vn -0.5877853918616448 -6.811229388898796e-16 0.8090168929719902
vn 0.5877857207196445 6.8112331996897805e-16 -0.809016654042479
vn 1.1587952819525071e-15 -1 0
vn -1.1587952819525071e-15 1 0
vn 0 0 1
vn 0 0 -1
vn 1.1587952819525071e-15 -1 0
vn -1.1587952819525071e-15 1 0
usemtl m_e8bdf2ed-4569-2ca7-e669-0316338b235c
f 1/1/1 5/2/1 6/3/1 2/4/1
f 4/5/2 8/6/2 7/7/2 3/8/2
f 3/9/3 7/10/3 5/11/3 1/12/3
f 2/13/4 6/14/4 8/15/4 4/16/4
f 5/17/5 9/18/5 10/19/5 6/20/5
f 8/21/6 12/22/6 11/23/6 7/24/6
f 7/25/7 11/26/7 9/27/7 5/28/7
f 6/29/8 10/30/8 12/31/8 8/32/8
f 9/33/9 13/34/9 14/35/9 10/36/9
f 12/37/10 16/38/10 15/39/10 11/40/10
f 11/41/11 15/42/11 13/43/11 9/44/11
f 10/45/12 14/46/12 16/47/12 12/48/12
f 13/49/13 17/50/13 18/51/13 14/52/13
f 16/53/14 20/54/14 19/55/14 15/56/14
f 15/57/15 19/58/15 17/59/15 13/60/15
f 14/61/16 18/62/16 20/63/16 16/64/16
f 17/65/17 21/66/17 22/67/17 18/68/17
f 20/69/18 24/70/18 23/71/18 19/72/18
f 19/73/19 23/74/19 21/75/19 17/76/19
f 18/77/20 22/78/20 24/79/20 20/80/20
f 21/81/21 25/82/21 26/83/21 22/84/21
f 24/85/22 28/86/22 27/87/22 23/88/22
f 23/89/23 27/90/23 25/91/23 21/92/23
f 22/93/24 26/94/24 28/95/24 24/96/24
f 25/97/25 29/98/25 30/99/25 26/100/25
f 28/101/26 32/102/26 31/103/26 27/104/26
f 27/105/27 31/106/27 29/107/27 25/108/27
f 26/109/28 30/110/28 32/111/28 28/112/28
f 29/113/29 33/114/29 34/115/29 30/116/29
f 32/117/30 36/118/30 35/119/30 31/120/30
f 31/121/31 35/122/31 33/123/31 29/124/31
f 30/125/32 34/126/32 36/127/32 32/128/32
f 33/129/33 37/130/33 38/131/33 34/132/33
f 36/133/34 40/134/34 39/135/34 35/136/34
f 35/137/35 39/138/35 37/139/35 33/140/35
f 34/141/36 38/142/36 40/143/36 36/144/36
f 37/145/37 1/146/37 2/147/37 38/148/37
f 40/149/38 4/150/38 3/151/38 39/152/38
f 39/153/39 3/154/39 1/155/39 37/156/39
f 38/157/40 2/158/40 4/159/40 40/160/40
o spoke1
v 0.49999999999999994 0.46875 0.53125
v 0.49999999999999994 0.46875 0.46875
v 0 0.46875000000000067 0.53125
v 0 0.46875000000000067 0.46875
v 0.5 0.53125 0.46875
v 0.5 0.53125 0.53125
v 5.551115123125783e-17 0.5312500000000007 0.46875
v 5.551115123125783e-17 0.5312500000000007 0.53125
vt 0 1
vt 0.03125 1
vt 0.03125 0.75
vt 0 0.75
vt 0 1
vt 0.03125 1
vt 0.03125 0.75
vt 0 0.75
vt 0 1
vt 0.03125 1
vt 0.03125 0.75
vt 0 0.75
vt 0 1
vt 0.03125 1
vt 0.03125 0.75
vt 0 0.75
vt 0 1
vt 0.03125 1
vt 0.03125 0.96875
vt 0 0.96875
vt 0 1
vt 0.03125 1
vt 0.03125 0.96875
vt 0 0.96875
vn 0 0 -1
vn -1.3322676295501878e-15 -1 0
vn 0 0 1
vn 1.3322676295501878e-15 1 0
vn 1 -1.3322676295501878e-15 0
vn -1 1.3322676295501878e-15 0
usemtl m_e8bdf2ed-4569-2ca7-e669-0316338b235c
f 44/164/41 47/163/41 45/162/41 42/161/41
f 43/168/42 44/167/42 42/166/42 41/165/42
f 48/172/43 43/171/43 41/170/43 46/169/43
f 47/176/44 48/175/44 46/174/44 45/173/44
f 46/180/45 41/179/45 42/178/45 45/177/45
f 47/184/46 44/183/46 43/182/46 48/181/46
o shaft
v 0.5624999999999998 0.3124999999999999 0.5625
v 0.5624999999999998 0.3124999999999999 0.4375
v 0.4374999999999998 0.3125000000000001 0.5625
v 0.4374999999999998 0.3125000000000001 0.4375
v 0.5625000000000002 0.6249999999999999 0.4375
v 0.5625000000000002 0.6249999999999999 0.5625
v 0.43750000000000017 0.6250000000000001 0.4375
v 0.43750000000000017 0.6250000000000001 0.5625
vt 0 1
vt 0.15625 1
vt 0.15625 0.9375
vt 0 0.9375
vt 0 1
vt 0.0625 1
vt 0.0625 0.9375
vt 0 0.9375
vt 0 1
vt 0.15625 1
vt 0.15625 0.9375
vt 0 0.9375
vt 0 1
vt 0.0625 1
vt 0.0625 0.9375
vt 0 0.9375
vt 0 1
vt 0.15625 1
vt 0.15625 0.9375
vt 0 0.9375
vt 0 1
vt 0.15625 1
vt 0.15625 0.9375
vt 0 0.9375
vn 0 0 -1
vn -1.3322676295501878e-15 -1 0
vn 0 0 1
vn 1.3322676295501878e-15 1 0
vn 1 -1.3322676295501878e-15 0
vn -1 1.3322676295501878e-15 0
usemtl m_e8bdf2ed-4569-2ca7-e669-0316338b235c
f 52/188/47 55/187/47 53/186/47 50/185/47
f 51/192/48 52/191/48 50/190/48 49/189/48
f 56/196/49 51/195/49 49/194/49 54/193/49
f 55/200/50 56/199/50 54/198/50 53/197/50
f 54/204/51 49/203/51 50/202/51 53/201/51
f 55/208/52 52/207/52 51/206/52 56/205/52
o spoke2
v 0.4702794838657762 0.46875000000000017 0.509656781074217
v 0.5297205161342233 0.4687499999999999 0.4903432189257828
v 0.3157709866783034 0.46875000000000105 0.034128522926639815
v 0.37521201894675055 0.4687500000000007 0.014814960778205766
v 0.5297205161342237 0.5312499999999999 0.49034321892578286
v 0.47027948386577656 0.5312500000000001 0.509656781074217
v 0.3752120189467508 0.5312500000000008 0.014814960778205766
v 0.3157709866783037 0.531250000000001 0.034128522926639815
vt 0 1
vt 0.03125 1
vt 0.03125 0.75
vt 0 0.75
vt 0 1
vt 0.03125 1
vt 0.03125 0.75
vt 0 0.75
vt 0 1
vt 0.03125 1
vt 0.03125 0.75
vt 0 0.75
vt 0 1
vt 0.03125 1
vt 0.03125 0.75
vt 0 0.75
vt 0 1
vt 0.03125 1
vt 0.03125 0.96875
vt 0 0.96875
vt 0 1
vt 0.03125 1
vt 0.03125 0.96875
vt 0 0.96875
vn 0.9510565162951542 -4.5772777488558445e-15 -0.3090169943749457
vn -4.878052304102592e-15 -1 -2.8279684053941136e-16
vn -0.9510565162951542 4.5772777488558445e-15 0.3090169943749457
vn 4.878052304102592e-15 1 2.8279684053941136e-16
vn 0.3090169943749457 -1.7207192099064537e-15 0.9510565162951542
vn -0.3090169943749457 1.7207192099064537e-15 -0.9510565162951542
usemtl m_e8bdf2ed-4569-2ca7-e669-0316338b235c
f 60/212/53 63/211/53 61/210/53 58/209/53
f 59/216/54 60/215/54 58/214/54 57/213/54
f 64/220/55 59/219/55 57/218/55 62/217/55
f 63/224/56 64/223/56 62/222/56 61/221/56
f 62/228/57 57/227/57 58/226/57 61/225/57
f 63/232/58 60/231/58 59/230/58 64/229/58
o spoke3
v 0.4816317108658602 0.46875 0.4747182189257829
v 0.5183682891341398 0.46875 0.5252817810742171
v 0.886140208053334 0.46875 0.18082559277954646
v 0.9228767863216136 0.46875 0.23138915492798062
v 0.5183682891341398 0.53125 0.5252817810742171
v 0.4816317108658602 0.53125 0.4747182189257829
v 0.9228767863216136 0.53125 0.23138915492798062
v 0.886140208053334 0.53125 0.18082559277954646
vt 0 1
vt 0.03125 1
vt 0.03125 0.75
vt 0 0.75
vt 0 1
vt 0.031249999999999972 1
vt 0.031249999999999972 0.75
vt 0 0.75
vt 0 1
vt 0.03125 1
vt 0.03125 0.75
vt 0 0.75
vt 0 1
vt 0.031249999999999972 1
vt 0.031249999999999972 0.75
vt 0 0.75
vt 0 1
vt 0.03125 1
vt 0.03125 0.96875
vt 0 0.96875
vt 0 1
vt 0.03125 1
vt 0.03125 0.96875
vt 0 0.96875
vn 0.5877852522924729 2.406812809124684e-16 0.8090169943749477
vn 9.788590809453153e-17 -1 1.3472839417021616e-16
vn -0.5877852522924729 -2.406812809124684e-16 -0.8090169943749477
vn -9.788590809453153e-17 1 -1.3472839417021616e-16
vn -0.8090169943749476 -2.3682815230892175e-16 0.5877852522924729
vn 0.8090169943749476 2.3682815230892175e-16 -0.5877852522924729
usemtl m_e8bdf2ed-4569-2ca7-e669-0316338b235c
f 68/236/59 71/235/59 69/234/59 66/233/59
f 67/240/60 68/239/60 66/238/60 65/237/60
f 72/244/61 67/243/61 65/242/61 70/241/61
f 71/248/62 72/247/62 70/246/62 69/245/62
f 70/252/63 65/251/63 66/250/63 69/249/63
f 71/256/64 68/255/64 67/254/64 72/253/64
o spoke4
v 0.5183682891341396 0.46875 0.47471821892578286
v 0.48163171086586 0.46875 0.5252817810742171
v 0.9228767863216134 0.46875 0.7686108450720194
v 0.8861402080533338 0.46875 0.8191744072204536
v 0.48163171086586 0.53125 0.5252817810742171
v 0.5183682891341396 0.53125 0.47471821892578286
v 0.8861402080533338 0.53125 0.8191744072204536
v 0.9228767863216134 0.53125 0.7686108450720194
vt 0 1
vt 0.03125 1
vt 0.03125 0.75
vt 0 0.75
vt 0 1
vt 0.03125 1
vt 0.03125 0.75
vt 0 0.75
vt 0 1
vt 0.03125 1
vt 0.03125 0.75
vt 0 0.75
vt 0 1
vt 0.03125 1
vt 0.03125 0.75
vt 0 0.75
vt 0 1
vt 0.03125 1
vt 0.03125 0.96875
vt 0 0.96875
vt 0 1
vt 0.03125 1
vt 0.03125 0.96875
vt 0 0.96875
vn -0.5877852522924729 -2.406812809124684e-16 0.8090169943749477
vn 9.788590809453153e-17 -1 -1.3472839417021616e-16
vn 0.5877852522924729 2.406812809124684e-16 -0.8090169943749477
vn -9.788590809453153e-17 1 1.3472839417021616e-16
vn -0.8090169943749476 -2.3682815230892175e-16 -0.5877852522924729
vn 0.8090169943749476 2.3682815230892175e-16 0.5877852522924729
usemtl m_e8bdf2ed-4569-2ca7-e669-0316338b235c
f 76/260/65 79/259/65 77/258/65 74/257/65
f 75/264/66 76/263/66 74/262/66 73/261/66
f 80/268/67 75/267/67 73/266/67 78/265/67
f 79/272/68 80/271/68 78/270/68 77/269/68
f 78/276/69 73/275/69 74/274/69 77/273/69
f 79/280/70 76/279/70 75/278/70 80/277/70
o spoke5
v 0.5297205161342233 0.4687499999999999 0.5096567810742172
v 0.4702794838657762 0.46875000000000017 0.4903432189257831
v 0.37521201894675055 0.4687500000000007 0.9851850392217941
v 0.3157709866783034 0.46875000000000105 0.9658714770733601
v 0.47027948386577656 0.5312500000000001 0.49034321892578303
v 0.5297205161342237 0.5312499999999999 0.5096567810742172
v 0.3157709866783037 0.531250000000001 0.9658714770733601
v 0.3752120189467509 0.5312500000000008 0.9851850392217941
vt 0 1
vt 0.03125 1
vt 0.03125 0.75
vt 0 0.75
vt 0 1
vt 0.03125 1
vt 0.03125 0.75
vt 0 0.75
vt 0 1
vt 0.03125 1
vt 0.03125 0.75
vt 0 0.75
vt 0 1
vt 0.03125 1
vt 0.03125 0.75
vt 0 0.75
vt 0 1
vt 0.03125 1
vt 0.03125 0.96875
vt 0 0.96875
vt 0 1
vt 0.03125 1
vt 0.03125 0.96875
vt 0 0.96875
vn -0.9510565162951542 4.5772777488558445e-15 -0.3090169943749457
vn -4.878052304102592e-15 -1 2.8279684053941136e-16
vn 0.9510565162951542 -4.5772777488558445e-15 0.3090169943749457
vn 4.878052304102592e-15 1 -2.8279684053941136e-16
vn 0.3090169943749457 -1.7207192099064537e-15 -0.9510565162951542
vn -0.3090169943749457 1.7207192099064537e-15 0.9510565162951542
usemtl m_e8bdf2ed-4569-2ca7-e669-0316338b235c
f 84/284/71 87/283/71 85/282/71 82/281/71
f 83/288/72 84/287/72 82/286/72 81/285/72
f 88/292/73 83/291/73 81/290/73 86/289/73
f 87/296/74 88/295/74 86/294/74 85/293/74
f 86/300/75 81/299/75 82/298/75 85/297/75
f 87/304/76 84/303/76 83/302/76 88/301/76
o handle
v 0.09375000000000006 0.5312500000000006 0.53125
v 0.09375000000000006 0.5312500000000006 0.46875
v 0.031250000000000056 0.5312500000000007 0.53125
v 0.031250000000000056 0.5312500000000007 0.46875
v 0.09375000000000039 0.7812500000000006 0.46875
v 0.09375000000000039 0.7812500000000006 0.53125
v 0.03125000000000039 0.7812500000000007 0.46875
v 0.03125000000000039 0.7812500000000007 0.53125
vt 0 1
vt 0.125 1
vt 0.125 0.96875
vt 0 0.96875
vt 0 1
vt 0.03125 1
vt 0.03125 0.96875
vt 0 0.96875
vt 0 1
vt 0.125 1
vt 0.125 0.96875
vt 0 0.96875
vt 0 1
vt 0.03125 1
vt 0.03125 0.96875
vt 0 0.96875
vt 0 1
vt 0.125 1
vt 0.125 0.96875
vt 0 0.96875
vt 0 1
vt 0.125 1
vt 0.125 0.96875
vt 0 0.96875
vn 0 0 -1
vn -1.3322676295501878e-15 -1 0
vn 0 0 1
vn 1.3322676295501878e-15 1 0
vn 1 -1.3322676295501878e-15 0
vn -1 1.3322676295501878e-15 0
usemtl m_e8bdf2ed-4569-2ca7-e669-0316338b235c
f 92/308/77 95/307/77 93/306/77 90/305/77
f 91/312/78 92/311/78 90/310/78 89/309/78
f 96/316/79 91/315/79 89/314/79 94/313/79
f 95/320/80 96/319/80 94/318/80 93/317/80
f 94/324/81 89/323/81 90/322/81 93/321/81
f 95/328/82 92/327/82 91/326/82 96/325/82