# Made in Blockbench 4.12.6
mtllib caseoh.mtl

o no_muscle_mass
v 0.4999999999999999 2.220446049250313e-16 0.4999999999999999
v 0.5000000000000001 2 0.5000000000000001
v 0.36602562500000013 1.8660256250000002 -0.2499999999999999
v 0.26794937500000005 1.5000000000000004 -0.799038125
v 0.232050625 1.0000000000000004 -1
v 0.26794937499999993 0.5000000000000004 -0.799038125
v 0.3660256249999999 0.1339743750000003 -0.2500000000000001
v 0.1339743750000001 1.8660256250000002 -0.04903812499999993
v -0.13397437499999987 1.5000000000000004 -0.45096187499999985
v -0.23205062499999995 1.0000000000000004 -0.5980762500000001
v -0.1339743750000001 0.5000000000000004 -0.45096187500000007
v 0.13397437499999987 0.1339743750000003 -0.049038125000000155
v 1.1102230246251565e-16 1.8660256250000002 0.2990381250000001
v -0.3660256249999999 1.5000000000000004 0.15192375000000008
v -0.5 1.0000000000000004 0.09807624999999998
v -0.36602562500000013 0.5000000000000004 0.15192374999999997
v -1.1102230246251565e-16 0.1339743750000003 0.2990381249999999
v 1.1102230246251565e-16 1.8660256250000002 0.7009618750000002
v -0.3660256249999999 1.5000000000000004 0.8480762500000001
v -0.5 1.0000000000000002 0.90192375
v -0.36602562500000013 0.5000000000000002 0.8480762499999999
v -1.1102230246251565e-16 0.1339743750000003 0.700961875
v 0.1339743750000001 1.8660256250000002 1.049038125
v -0.13397437499999987 1.5000000000000002 1.450961875
v -0.23205062499999995 1.0000000000000002 1.59807625
v -0.1339743750000001 0.5000000000000001 1.450961875
v 0.13397437499999987 0.1339743750000001 1.049038125
v 0.36602562500000013 1.8660256250000002 1.25
v 0.26794937500000005 1.5 1.799038125
v 0.232050625 1 2
v 0.26794937499999993 0.5000000000000001 1.799038125
v 0.3660256249999999 0.1339743750000001 1.25
v 0.6339743750000001 1.8660256250000002 1.25
v 0.7320506250000001 1.5 1.799038125
v 0.7679493749999999 1 2
v 0.732050625 0.5000000000000001 1.799038125
v 0.6339743749999999 0.1339743750000001 1.25
v 0.8660256250000001 1.8660256250000002 1.049038125
v 1.1339743750000002 1.5 1.450961875
v 1.2320506249999998 1 1.59807625
v 1.1339743749999998 0.5 1.450961875
v 0.8660256249999999 0.1339743750000001 1.049038125
v 1 1.8660256250000002 0.7009618750000002
v 1.3660256250000002 1.5 0.8480762500000001
v 1.5 1 0.90192375
v 1.3660256249999998 0.5000000000000001 0.8480762499999999
v 0.9999999999999999 0.1339743750000001 0.700961875
v 1 1.8660256250000002 0.2990381250000001
v 1.3660256250000002 1.5000000000000002 0.15192375000000008
v 1.5 1.0000000000000002 0.09807624999999998
v 1.3660256249999998 0.5000000000000001 0.15192374999999997
v 0.9999999999999999 0.1339743750000001 0.2990381249999999
v 0.8660256250000001 1.8660256250000002 -0.04903812499999993
v 1.1339743750000002 1.5000000000000004 -0.45096187499999985
v 1.2320506249999998 1.0000000000000002 -0.5980762500000001
v 1.1339743749999998 0.5000000000000002 -0.45096187500000007
v 0.8660256249999999 0.1339743750000003 -0.049038125000000155
v 0.6339743750000001 1.8660256250000002 -0.2499999999999999
v 0.7320506250000001 1.5000000000000004 -0.799038125
v 0.7679493749999999 1.0000000000000004 -1
v 0.732050625 0.5000000000000004 -0.799038125
v 0.6339743749999999 0.1339743750000003 -0.2500000000000001
vt 0.276288046875 0.577031640625
vt 0.305585703125 0.601811640625
vt 0.259541328125 0.6722651562499999
vt 0.276287890625 0.577032578125
vt 0.288547421875 0.49454960937500003
vt 0.34379359375 0.5314957812500001
vt 0.308184453125 0.59836359375
vt 0.66010078125 0.53125
vt 0.64704765625 0.46875
vt 0.72379140625 0.46875
vt 0.7265625 0.53125
vt 0.63142265625 0.8125
vt 0.64447578125 0.75
vt 0.7109375 0.75
vt 0.70816640625 0.8125
vt 0.169281015625 0.9957389062499999
vt 0.14783078125 0.915155859375
vt 0.177128359375 0.890375859375
vt 0.22002578125 0.952818828125
vt 0.177128359375 0.890375859375
vt 0.14783078125 0.915155859375
vt 0.1310840625 0.8199223437500001
vt 0.305585703125 0.601811640625
vt 0.323337734375 0.6449207031249999
vt 0.2595409375 0.672265703125
vt 0.308184453125 0.598363515625
vt 0.34379359375 0.5314957812500001
vt 0.3896125 0.5979887500000001
vt 0.3346378125 0.63675296875
vt 0.257738515625 0.9898040625
vt 0.25151015625 0.92380421875
vt 0.344290546875 0.933072265625
vt 0.338089453125 0.99783046875
vt 0.25151015625 0.92380421875
vt 0.270671015625 0.8603405468750001
vt 0.351021875 0.86836703125
vt 0.344290546875 0.933072265625
vt 0.226052265625 0.948218359375
vt 0.177128359375 0.890375859375
vt 0.19488046875 0.8472667968750001
vt 0.2568 0.873550703125
vt 0.19488046875 0.8472667968750001
vt 0.177128359375 0.890375859375
vt 0.131083671875 0.819921796875
vt 0.323337734375 0.6449207031249999
vt 0.32507671875 0.69513125
vt 0.259541328125 0.6722655468750001
vt 0.18278984375 0.46469875000000005
vt 0.16440078125 0.3999940625
vt 0.25141953125 0.3999940625
vt 0.23303046875 0.46469875000000005
vt 0.351021875 0.99777640625
vt 0.344290625 0.93307171875
vt 0.444771875 0.93307171875
vt 0.438040625 0.99777640625
vt 0.344290625 0.93307171875
vt 0.351021875 0.86836703125
vt 0.438040625 0.86836703125
vt 0.444771875 0.93307171875
vt 0.351021875 0.86836703125
vt 0.3694109375 0.80366234375
vt 0.4196515625 0.80366234375
vt 0.438040625 0.86836703125
vt 0.196619375 0.79705625
vt 0.19488046875 0.8472667968750001
vt 0.131083984375 0.8199219531249999
vt 0.32507671875 0.69513125
vt 0.310349609375 0.73936515625
vt 0.2595409375 0.67226546875
vt 0.23303046875 0.46469890625
vt 0.25141953125 0.3999940625
vt 0.32932828125 0.421228984375
vt 0.278010703125 0.476958828125
vt 0.450973046875 0.99783046875
vt 0.444771953125 0.933072265625
vt 0.53755234375 0.92380421875
vt 0.531323984375 0.9898040625
vt 0.444771953125 0.933072265625
vt 0.438040625 0.86836703125
vt 0.518391484375 0.8603405468750001
vt 0.53755234375 0.92380421875
vt 0.438040625 0.86836703125
vt 0.430631796875 0.8015090625
vt 0.47702203125 0.796875
vt 0.518391484375 0.8603405468750001
vt 0.18189234375 0.75282234375
vt 0.196619375 0.79705625
vt 0.131083671875 0.81992203125
vt 0.310349609375 0.73936515625
vt 0.2828365625 0.766112734375
vt 0.259541328125 0.672266015625
vt 0.278010625 0.476958828125
vt 0.32932828125 0.421228984375
vt 0.38247421875 0.461137265625
vt 0.308694609375 0.5
vt 0.28125 0.8515625
vt 0.28402109375 0.7890625
vt 0.36076484375 0.7890625
vt 0.34771171875 0.8515625
vt 0.13534296875 0.39161406249999997
vt 0.132571875 0.32537890625
vt 0.19903359375 0.32537890625
vt 0.21208671875 0.39161406249999997
vt 0.132571875 0.32537890625
vt 0.125 0.25
vt 0.163371875 0.25
vt 0.19903359375 0.32537890625
vt 0.154379296875 0.726074765625
vt 0.18189234375 0.75282234375
vt 0.1310840625 0.819921484375
vt 0.269659296875 0.768429921875
vt 0.23624578125 0.766112734375
vt 0.259541171875 0.6722651562499999
vt 0.269659296875 0.768429921875
vt 0.276182890625 0.8515625
vt 0.218309375 0.847548984375
vt 0.23624578125 0.766112734375
vt 0.7249 0.3984375
vt 0.7204125 0.328125
vt 0.7874 0.328125
vt 0.7829125 0.3984375
vt 0.5172875 0.28125
vt 0.521775 0.2109375
vt 0.5797875 0.2109375
vt 0.584275 0.28125
vt 0.172315703125 0.6446385156250001
vt 0.154379296875 0.726074765625
vt 0.12096578125 0.7237575781250001
vt 0.1144421875 0.640625
vt 0.12096578125 0.7237575781250001
vt 0.154379296875 0.726074765625
vt 0.131083828125 0.8199223437500001
vt 0.23624578125 0.766112734375
vt 0.208732734375 0.73936515625
vt 0.259541015625 0.672266015625
vt 0.589742890625 0.6328125
vt 0.51596328125 0.593949765625
vt 0.56910921875 0.554041484375
vt 0.620426875 0.609771328125
vt 0.66010078125 0.46875
vt 0.64704765625 0.40625
vt 0.72379140625 0.40625
vt 0.7265625 0.46875
vt 0.21760078125 0.37598906249999997
vt 0.23065390625 0.30975390625
vt 0.297115625 0.30975390625
vt 0.29434453125 0.37598906249999997
vt 0.23065390625 0.30975390625
vt 0.266315625 0.234375
vt 0.3046875 0.234375
vt 0.297115625 0.30975390625
vt 0.08027546875 0.75282234375
vt 0.107788515625 0.726074765625
vt 0.131083671875 0.819921484375
vt 0.208732734375 0.73936515625
vt 0.194005625 0.69513125
vt 0.25954140625 0.67226546875
vt 0.620426796875 0.609771328125
vt 0.56910921875 0.554041484375
vt 0.64701796875 0.5328065625
vt 0.66540703125 0.59751140625
vt 0.351488515625 0.7866790625
vt 0.34526015625 0.72067921875
vt 0.438040546875 0.729947265625
vt 0.431839453125 0.79470546875
vt 0.34526015625 0.72067921875
vt 0.364421015625 0.6572155468750001
vt 0.444771875 0.66524203125
vt 0.438040546875 0.729947265625
vt 0.364421015625 0.6572155468750001
vt 0.40579046875 0.59375
vt 0.452180703125 0.5983840625
vt 0.444771875 0.66524203125
vt 0.065548359375 0.79705625
vt 0.08027546875 0.75282234375
vt 0.131084140625 0.81992203125
vt 0.194005625 0.69513125
vt 0.195744609375 0.6449207031249999
vt 0.259541015625 0.6722655468750001
vt 0.66540703125 0.5975112499999999
vt 0.64701796875 0.5328065625
vt 0.73403671875 0.5328065625
vt 0.71564765625 0.5975112499999999
vt 0.444771875 0.79465140625
vt 0.438040625 0.72994671875
vt 0.538521875 0.72994671875
vt 0.531790625 0.79465140625
vt 0.438040625 0.72994671875
vt 0.444771875 0.66524203125
vt 0.531790625 0.66524203125
vt 0.538521875 0.72994671875
vt 0.444771875 0.66524203125
vt 0.4631609375 0.60053734375
vt 0.5134015625 0.60053734375
vt 0.531790625 0.66524203125
vt 0.06728734375 0.8472667968750001
vt 0.065548359375 0.79705625
vt 0.13108375 0.8199219531249999
vt 0.195744609375 0.6449207031249999
vt 0.213496640625 0.601811640625
vt 0.25954140625 0.672265703125
vt 0.195744609375 0.6449207031249999
vt 0.133825 0.618636796875
vt 0.164572734375 0.543969140625
vt 0.213496640625 0.601811640625
vt 0.544723046875 0.79470546875
vt 0.538521953125 0.729947265625
vt 0.63130234375 0.72067921875
vt 0.625073984375 0.7866790625
vt 0.538521953125 0.729947265625
vt 0.531790625 0.66524203125
vt 0.612141484375 0.6572155468750001
vt 0.63130234375 0.72067921875
vt 0.0010125 0.894199609375
vt 0.0559871875 0.85543546875
vt 0.08244046875 0.893824921875
vt 0.046831328125 0.96069265625
vt 0.085039375 0.890375859375
vt 0.06728734375 0.8472667968750001
vt 0.131084140625 0.819921796875
vt 0.213496640625 0.601811640625
vt 0.242794296875 0.577031640625
vt 0.259541015625 0.6722651562499999
vt 0.213496640625 0.601811640625
vt 0.170599296875 0.5393686718749999
vt 0.2213440625 0.49644859374999994
vt 0.242794296875 0.577031640625
vt 0.640625 0.34375
vt 0.64339609375 0.28125
vt 0.72013984375 0.28125
vt 0.70708671875 0.34375
vt 0.64339609375 0.40625
vt 0.640625 0.34375
vt 0.70708671875 0.34375
vt 0.72013984375 0.40625
vt 0.046831328125 0.96069265625
vt 0.08244046875 0.893824921875
vt 0.11433703125 0.915155859375
vt 0.1020775 0.997638828125
vt 0.11433703125 0.915155859375
vt 0.085039375 0.890375859375
vt 0.13108375 0.8199223437500001
vt 0.242794296875 0.577031640625
vt 0.276288046875 0.577031640625
vt 0.259541171875 0.672266015625
vt 0.242794296875 0.577031640625
vt 0.230534921875 0.49454960937500003
vt 0.288547421875 0.49454960937500003
vt 0.276288046875 0.577031640625
vt 0.5920875 0.28125
vt 0.5876 0.2109375
vt 0.6545875 0.2109375
vt 0.6501 0.28125
vt 0.7126 0.8125
vt 0.7170875 0.7421875
vt 0.7751 0.7421875
vt 0.7795875 0.8125
vt 0.10207765625 0.997637890625
vt 0.11433703125 0.915155859375
vt 0.14783078125 0.915155859375
vt 0.16009015625 0.997637890625
vt 0.14783078125 0.915155859375
vt 0.11433703125 0.915155859375
vt 0.13108390625 0.819921484375
vn -0.13125382397990065 0.9796949797108286 -0.15155916475110484
vn -0.39735990025828705 0.7947192437947109 -0.4588315956961632
vn -0.6177408860874366 0.3310465686781498 -0.7133052411291619
vn -0.6177407057996441 -0.33104661065732016 -0.7133053777804135
vn -0.39735923507272264 -0.7947194344145836 -0.45883184160015006
vn -0.13125382397990085 -0.9796949797108284 -0.15155916475110504
vn -0.22519360016590664 0.9704509038031754 -0.08667690437433524
vn -0.6348113035349634 0.7330162551715949 -0.2443394740078894
vn -0.8966257376348983 0.2774171359010432 -0.3451116041502184
vn -0.8966255484849233 -0.27741722283023396 -0.34511202569784627
vn -0.6348119162760193 -0.7330159525503922 -0.2443387899221277
vn -0.22519360016590687 -0.9704509038031754 -0.08667690437433549
vn -0.25881864637420693 0.96592593312791 1.1829181022185151e-16
vn -0.7071067811865475 0.7071067811865477 8.659560562354934e-17
vn -0.9659259331279098 0.2588186463742071 3.169614268418233e-17
vn -0.96592593312791 -0.2588186463742069 -3.1696142684182326e-17
vn -0.7071067811865477 -0.7071067811865475 -8.659560562354934e-17
vn -0.2588186463742071 -0.9659259331279098 -1.182918102218515e-16
vn -0.22519360016590664 0.9704509038031754 0.08667690437433549
vn -0.634810896458925 0.7330166599380189 0.2443393173239356
vn -0.8966258859020767 0.27741658570001054 0.3451116612183147
vn -0.8966257196891093 -0.2774165875128169 0.34511209159450007
vn -0.6348112111989029 -0.7330166536271139 0.24433851853829716
vn -0.22519360016590687 -0.9704509038031754 0.08667690437433524
vn -0.13125382397990065 0.9796949797108286 0.15155916475110506
vn -0.39736007606529394 0.7947190386863688 0.45883179870056695
vn -0.6177409351787083 0.33104635493207996 0.7133052978148405
vn -0.6177407624853221 -0.33104636384474495 0.7133054432353827
vn -0.39735953957857767 -0.7947190791571552 0.45883219321392876
vn -0.13125382397990085 -0.9796949797108284 0.1515591647511048
vn 1.205563336106922e-16 0.984417169869943 0.17584890009679266
vn 1.0189675512371475e-16 0.8320501486196611 0.5547004148024409
vn 4.567062253137094e-17 0.3729289339846281 0.9278599087131036
vn -4.567062253137096e-17 -0.3729289339846283 0.9278599087131036
vn -1.0189675512371476e-16 -0.8320501486196612 0.5547004148024407
vn -1.2055633361069222e-16 -0.9844171698699432 0.17584890009679247
vn 0.13125382397990085 0.9796949797108284 0.15155916475110504
vn 0.39735990025828727 0.7947192437947107 0.45883159569616344
vn 0.6177408860874366 0.33104656867814947 0.7133052411291619
vn 0.617740705799644 -0.33104661065732044 0.7133053777804134
vn 0.3973592350727224 -0.7947194344145838 0.45883184160014984
vn 0.13125382397990065 -0.9796949797108286 0.15155916475110484
vn 0.22519360016590687 0.9704509038031754 0.08667690437433549
vn 0.6348113035349636 0.7330162551715946 0.24433947400788958
vn 0.8966257376348983 0.2774171359010429 0.3451116041502185
vn 0.8966255484849233 -0.2774172228302343 0.34511202569784616
vn 0.6348119162760191 -0.7330159525503924 0.24433878992212754
vn 0.22519360016590664 -0.9704509038031754 0.08667690437433524
vn 0.2588186463742071 0.9659259331279098 1.182918102218515e-16
vn 0.7071067811865477 0.7071067811865475 8.659560562354934e-17
vn 0.96592593312791 0.25881864637420693 3.169614268418234e-17
vn 0.9659259331279098 -0.25881864637420704 -3.169614268418232e-17
vn 0.7071067811865475 -0.7071067811865477 -8.659560562354934e-17
vn 0.25881864637420693 -0.96592593312791 -1.1829181022185151e-16
vn 0.22519360016590687 0.9704509038031754 -0.08667690437433524
vn 0.6348108964589252 0.7330166599380187 -0.24433931732393543
vn 0.8966258859020767 0.27741658570001043 -0.3451116612183146
vn 0.8966257196891093 -0.277416587512817 -0.3451120915945002
vn 0.6348112111989027 -0.7330166536271141 -0.24433851853829733
vn 0.22519360016590664 -0.9704509038031754 -0.08667690437433549
vn 0.13125382397990085 0.9796949797108284 -0.1515591647511048
vn 0.39736007606529417 0.7947190386863691 -0.45883179870056673
vn 0.6177409351787083 0.33104635493208007 -0.7133052978148405
vn 0.6177407624853221 -0.33104636384474484 -0.7133054432353827
vn 0.39735953957857756 -0.7947190791571552 -0.4588321932139291
vn 0.13125382397990065 -0.9796949797108286 -0.15155916475110506
vn 1.2055633361069222e-16 0.9844171698699432 -0.17584890009679247
vn 1.0189675512371477e-16 0.8320501486196613 -0.5547004148024407
vn 4.567062253137097e-17 0.37292893398462834 -0.9278599087131036
vn -4.5670622531370937e-17 -0.37292893398462806 -0.9278599087131036
vn -1.0189675512371473e-16 -0.832050148619661 -0.5547004148024409
vn -1.205563336106922e-16 -0.984417169869943 -0.17584890009679266
usemtl m_90ff3799-aee2-0ebc-77aa-7dbfaa91753a
f 3/1/1 8/2/1 2/3/1
f 3/4/2 4/5/2 9/6/2 8/7/2
f 4/8/3 5/9/3 10/10/3 9/11/3
f 5/12/4 6/13/4 11/14/4 10/15/4
f 6/16/5 7/17/5 12/18/5 11/19/5
f 12/20/6 7/21/6 1/22/6
f 8/23/7 13/24/7 2/25/7
f 8/26/8 9/27/8 14/28/8 13/29/8
f 9/30/9 10/31/9 15/32/9 14/33/9
f 10/34/10 11/35/10 16/36/10 15/37/10
f 11/38/11 12/39/11 17/40/11 16/41/11
f 17/42/12 12/43/12 1/44/12
f 13/45/13 18/46/13 2/47/13
f 13/48/14 14/49/14 19/50/14 18/51/14
f 14/52/15 15/53/15 20/54/15 19/55/15
f 15/56/16 16/57/16 21/58/16 20/59/16
f 16/60/17 17/61/17 22/62/17 21/63/17
f 22/64/18 17/65/18 1/66/18
f 18/67/19 23/68/19 2/69/19
f 18/70/20 19/71/20 24/72/20 23/73/20
f 19/74/21 20/75/21 25/76/21 24/77/21
f 20/78/22 21/79/22 26/80/22 25/81/22
f 21/82/23 22/83/23 27/84/23 26/85/23
f 27/86/24 22/87/24 1/88/24
f 23/89/25 28/90/25 2/91/25
f 23/92/26 24/93/26 29/94/26 28/95/26
f 24/96/27 25/97/27 30/98/27 29/99/27
f 25/100/28 26/101/28 31/102/28 30/103/28
f 26/104/29 27/105/29 32/106/29 31/107/29
f 32/108/30 27/109/30 1/110/30
f 28/111/31 33/112/31 2/113/31
f 28/114/32 29/115/32 34/116/32 33/117/32
f 29/118/33 30/119/33 35/120/33 34/121/33
f 30/122/34 31/123/34 36/124/34 35/125/34
f 31/126/35 32/127/35 37/128/35 36/129/35
f 37/130/36 32/131/36 1/132/36
f 33/133/37 38/134/37 2/135/37
f 33/136/38 34/137/38 39/138/38 38/139/38
f 34/140/39 35/141/39 40/142/39 39/143/39
f 35/144/40 36/145/40 41/146/40 40/147/40
f 36/148/41 37/149/41 42/150/41 41/151/41
f 42/152/42 37/153/42 1/154/42
f 38/155/43 43/156/43 2/157/43
f 38/158/44 39/159/44 44/160/44 43/161/44
f 39/162/45 40/163/45 45/164/45 44/165/45
f 40/166/46 41/167/46 46/168/46 45/169/46
f 41/170/47 42/171/47 47/172/47 46/173/47
f 47/174/48 42/175/48 1/176/48
f 43/177/49 48/178/49 2/179/49
f 43/180/50 44/181/50 49/182/50 48/183/50
f 44/184/51 45/185/51 50/186/51 49/187/51
f 45/188/52 46/189/52 51/190/52 50/191/52
f 46/192/53 47/193/53 52/194/53 51/195/53
f 52/196/54 47/197/54 1/198/54
f 48/199/55 53/200/55 2/201/55
f 48/202/56 49/203/56 54/204/56 53/205/56
f 49/206/57 50/207/57 55/208/57 54/209/57
f 50/210/58 51/211/58 56/212/58 55/213/58
f 51/214/59 52/215/59 57/216/59 56/217/59
f 57/218/60 52/219/60 1/220/60
f 53/221/61 58/222/61 2/223/61
f 53/224/62 54/225/62 59/226/62 58/227/62
f 54/228/63 55/229/63 60/230/63 59/231/63
f 55/232/64 56/233/64 61/234/64 60/235/64
f 56/236/65 57/237/65 62/238/65 61/239/65
f 62/240/66 57/241/66 1/242/66
f 58/243/67 3/244/67 2/245/67
f 58/246/68 59/247/68 4/248/68 3/249/68
f 59/250/69 60/251/69 5/252/69 4/253/69
f 60/254/70 61/255/70 6/256/70 5/257/70
f 61/258/71 62/259/71 7/260/71 6/261/71
f 7/262/72 62/263/72 1/264/72
o stabilizer2
v -0.4937499999999997 1.99375 2
v -0.4937499999999997 1.99375 1.5
v -0.4937499999999999 0.006249999999999947 1.9999999999999998
v -0.4937499999999999 0.006250000000000007 1.4999999999999998
v 1.4937500000000004 1.9937499999999997 2
v 1.4937500000000004 1.9937499999999997 1.5
v 1.49375 0.006249999999999703 1.9999999999999998
v 1.49375 0.0062499999999997636 1.4999999999999998
vt 0.640625 0.28125
vt 0.640625 0.53125
vt 0.578125 0.53125
vt 0.578125 0.28125
vt 0.3671875 0.1640625
vt 0.3671875 0.4140625
vt 0.3046875 0.4140625
vt 0.3046875 0.1640625
vt 0.5390625 0.9375
vt 0.5390625 0.875
vt 0.7890625 0.875
vt 0.7890625 0.9375
vt 0.625 0.6328125
vt 0.625 0.6953125
vt 0.875 0.6953125
vt 0.875 0.6328125
vn 1 -1.2246467991473532e-16 0
vn -1 1.2246467991473532e-16 0
vn -1.2246467991473532e-16 -1 -1.2246467991473532e-16
vn 1.2246467991473532e-16 1 1.2246467991473532e-16
usemtl m_90ff3799-aee2-0ebc-77aa-7dbfaa91753a
f 66/265/73 64/266/73 63/267/73 65/268/73
f 69/269/74 67/270/74 68/271/74 70/272/74
f 63/273/75 64/274/75 68/275/75 67/276/75
f 66/277/76 65/278/76 69/279/76 70/280/76
o stabilizer
v -0.4937499999999997 1.99375 1.5000000000000002
v -0.4937499999999997 1.99375 2.0000000000000004
v -0.4937499999999999 0.006250000000000069 1.5
v -0.4937499999999999 0.006250000000000007 2
v 1.4937500000000004 1.9937499999999997 1.5000000000000002
v 1.4937500000000004 1.9937499999999997 2.0000000000000004
v 1.49375 0.006249999999999825 1.5
v 1.49375 0.0062499999999997636 2
vt 0.0625 0.25
vt 0.0625 0.5
vt 0 0.5
vt 0 0.25
vt 0.578125 0.296875
vt 0.578125 0.546875
vt 0.515625 0.546875
vt 0.515625 0.296875
vt 0.5234375 0.875
vt 0.5234375 0.8125
vt 0.7734375 0.8125
vt 0.7734375 0.875
vt 0.5390625 0.9375
vt 0.5390625 1
vt 0.7890625 1
vt 0.7890625 0.9375
vn -1 1.2246467991473532e-16 0
vn 1 -1.2246467991473532e-16 0
vn 1.2246467991473532e-16 1 1.2246467991473532e-16
vn -1.2246467991473532e-16 -1 -1.2246467991473532e-16
usemtl m_90ff3799-aee2-0ebc-77aa-7dbfaa91753a
f 74/281/77 72/282/77 71/283/77 73/284/77
f 77/285/78 75/286/78 76/287/78 78/288/78
f 71/289/79 72/290/79 76/291/79 75/292/79
f 74/293/80 73/294/80 77/295/80 78/296/80
o inner_stab2
v -0.49375000000000013 0.006249999999999978 1.5
v -0.49375000000000013 0.006249999999999978 1.9999999999999998
v 1.4937500000000001 1.99375 1.5
v 1.4937500000000001 1.99375 2
vt 0.390625 0.2421875
vt 0.453125 0.2421875
vt 0.453125 0.59375
vt 0.390625 0.59375
vt 0.453125 0.2421875
vt 0.515625 0.2421875
vt 0.515625 0.59375
vt 0.453125 0.59375
vn -0.7071067811865475 0.7071067811865476 8.659560562354932e-17
vn 0.7071067811865475 -0.7071067811865476 -8.659560562354932e-17
usemtl m_90ff3799-aee2-0ebc-77aa-7dbfaa91753a
f 79/297/81 80/298/81 82/299/81 81/300/81
f 80/301/82 79/302/82 81/303/82 82/304/82
o inner_stab1
v -0.4937499999999997 1.99375 1.5
v -0.4937499999999997 1.99375 2
v 1.49375 0.006249999999999756 1.5
v 1.49375 0.006249999999999756 1.9999999999999998
vt 0.0625 0.8515625
vt 0 0.8515625
vt 0 0.5
vt 0.0625 0.5
vt 0.125 0.640625
vt 0.0625 0.640625
vt 0.0625 0.2890625
vt 0.125 0.2890625
vn 0.7071067811865477 0.7071067811865474 8.659560562354932e-17
vn -0.7071067811865477 -0.7071067811865474 -8.659560562354932e-17
usemtl m_90ff3799-aee2-0ebc-77aa-7dbfaa91753a
f 83/305/83 84/306/83 86/307/83 85/308/83
f 84/309/84 83/310/84 85/311/84 86/312/84